<svg width="108" height="108" viewBox="0 0 108 108" fill="none" xmlns="http://www.w3.org/2000/svg">
<g filter="url(#filter0_d_366_26133)">
<rect x="23" y="37" width="56" height="56" rx="28" fill="#048372" shape-rendering="crispEdges"/>
<rect x="24.5" y="38.5" width="53" height="53" rx="26.5" stroke="white" stroke-width="3" shape-rendering="crispEdges"/>
<path d="M59.16 63.16H52.84V56.84C52.84 55.825 52.0175 55 51 55C49.985 55 49.16 55.8225 49.16 56.84V63.16H42.84C41.8225 63.16 41 63.985 41 65C41 66.015 41.8225 66.84 42.84 66.84H49.16V73.16C49.16 74.175 49.9825 75 51 75C52.015 75 52.84 74.1775 52.84 73.16V66.84H59.16C60.175 66.84 61 66.0175 61 65C61 63.985 60.1775 63.16 59.16 63.16Z" fill="#B7E83D"/>
</g>
<defs>
<filter id="filter0_d_366_26133" x="0" y="0" width="108" height="108" filterUnits="userSpaceOnUse" color-interpolation-filters="sRGB">
<feFlood flood-opacity="0" result="BackgroundImageFix"/>
<feColorMatrix in="SourceAlpha" type="matrix" values="0 0 0 0 0 0 0 0 0 0 0 0 0 0 0 0 0 0 127 0" result="hardAlpha"/>
<feOffset dx="3" dy="-11"/>
<feGaussianBlur stdDeviation="13"/>
<feComposite in2="hardAlpha" operator="out"/>
<feColorMatrix type="matrix" values="0 0 0 0 0.0431373 0 0 0 0 0.329412 0 0 0 0 0.819608 0 0 0 0.08 0"/>
<feBlend mode="normal" in2="BackgroundImageFix" result="effect1_dropShadow_366_26133"/>
<feBlend mode="normal" in="SourceGraphic" in2="effect1_dropShadow_366_26133" result="shape"/>
</filter>
</defs>
</svg>
