<svg width="17" height="16" viewBox="0 0 17 16" fill="none" xmlns="http://www.w3.org/2000/svg">
<path d="M16.8975 1.97245L15.9621 1.037L15.0266 0.101544C14.989 0.0640049 14.9434 0.0355872 14.8932 0.0184836C14.8429 0.00137997 14.7894 -0.00395223 14.7368 0.00289836C14.6842 0.00974895 14.6338 0.0285992 14.5896 0.0579946C14.5454 0.08739 14.5086 0.126544 14.4819 0.172437C14.1551 0.761731 13.68 1.25549 13.1038 1.60487C12.5275 1.95424 11.8701 2.14714 11.1964 2.16448L11.0721 2.16077C11.0027 2.1587 10.9343 2.17752 10.8757 2.21478C10.8172 2.25204 10.7712 2.30603 10.7437 2.36975C10.7162 2.43347 10.7084 2.50399 10.7214 2.57216C10.7345 2.64033 10.7677 2.70301 10.8168 2.75209L12.2869 4.22219L11.6889 4.82017C11.5174 4.71353 11.3263 4.64235 11.1268 4.61081L11.1145 4.6076L3.87337 2.69168C3.6797 2.64032 3.47781 2.62765 3.27924 2.65438C3.08067 2.68112 2.88932 2.74675 2.71613 2.84751C2.54295 2.94827 2.39133 3.08218 2.26995 3.24159C2.14857 3.401 2.05981 3.58278 2.00874 3.77653L0.051021 11.1781C-0.000394746 11.3718 -0.0131107 11.5737 0.0136011 11.7723C0.0403128 11.971 0.105928 12.1623 0.206691 12.3356C0.307454 12.5088 0.441388 12.6605 0.600827 12.7819C0.760266 12.9033 0.942081 12.992 1.13587 13.0431L1.70265 13.1931V13.7682C1.70308 14.1725 1.86384 14.56 2.14966 14.8459C2.43547 15.1317 2.823 15.2925 3.22723 15.293H10.8849C11.2892 15.2925 11.6767 15.1317 11.9625 14.8459C12.2483 14.56 12.4091 14.1725 12.4095 13.7683V6.11068C12.4106 6.02887 12.4031 5.94717 12.3874 5.86688C12.3826 5.83332 12.3751 5.79792 12.3661 5.7575L12.366 5.75606L12.3654 5.7539L12.3645 5.74946C12.3624 5.74084 12.3586 5.7328 12.3563 5.72421C12.3185 5.57804 12.2585 5.43854 12.1784 5.31056L12.7768 4.71216L14.2469 6.18225C14.296 6.23133 14.3587 6.26454 14.4269 6.27757C14.495 6.29061 14.5656 6.28287 14.6293 6.25535C14.693 6.22784 14.747 6.18183 14.7842 6.12327C14.8215 6.06471 14.8403 5.99632 14.8383 5.92694L14.8345 5.80276C14.8515 5.12898 15.0442 4.47133 15.3936 3.895C15.743 3.31867 16.237 2.84367 16.8266 2.51708C16.8725 2.49043 16.9116 2.45358 16.941 2.40939C16.9704 2.3652 16.9893 2.31485 16.9961 2.26222C17.003 2.2096 16.9976 2.1561 16.9805 2.10586C16.9634 2.05562 16.935 2.00997 16.8975 1.97245ZM2.67871 3.9535C2.72546 3.77609 2.82954 3.6191 2.97477 3.50698C3.12 3.39486 3.29822 3.3339 3.48169 3.33359C3.55417 3.33365 3.62634 3.34309 3.6964 3.36167L8.32325 4.58594H3.22723C3.13537 4.58685 3.04378 4.59611 2.95359 4.6136C2.93128 4.61768 2.90943 4.62217 2.88746 4.6272C2.80191 4.64587 2.71814 4.67193 2.6371 4.70509L2.6338 4.70625C2.57266 4.73216 2.51329 4.76205 2.45606 4.79574L2.67871 3.9535ZM1.31301 12.3731C1.20724 12.3453 1.10799 12.2968 1.02097 12.2306C0.933938 12.1643 0.860835 12.0815 0.805843 11.987C0.750852 11.8925 0.715053 11.788 0.700496 11.6796C0.685939 11.5712 0.692911 11.461 0.721011 11.3553L1.70265 7.6439V12.4762L1.31301 12.3731ZM11.7165 13.7682C11.7163 13.9887 11.6286 14.2001 11.4727 14.3561C11.3168 14.512 11.1055 14.5997 10.885 14.6H3.22723C3.00674 14.5997 2.79535 14.512 2.63946 14.3561C2.48356 14.2001 2.39588 13.9887 2.39566 13.7682V6.11068C2.39588 5.89019 2.48356 5.67879 2.63946 5.52286C2.79536 5.36693 3.00674 5.27921 3.22723 5.27894H10.8849C10.9117 5.27927 10.9384 5.28126 10.965 5.2849L11.0973 5.31938C11.1207 5.32564 11.1405 5.33816 11.1629 5.34616L10.0816 6.42741C10.0494 6.45957 10.0238 6.49776 10.0063 6.53982C9.98885 6.58187 9.97984 6.62696 9.97981 6.6725C9.97978 6.71804 9.98872 6.76314 10.0061 6.80522C10.0235 6.8473 10.0491 6.88553 10.0813 6.91774C10.1135 6.94994 10.1517 6.97547 10.1938 6.99289C10.2359 7.0103 10.281 7.01924 10.3265 7.01921C10.3721 7.01918 10.4171 7.01017 10.4592 6.9927C10.5013 6.97522 10.5395 6.94963 10.5716 6.91738L11.6574 5.83154C11.6704 5.85898 11.6818 5.88713 11.6916 5.91587C11.6958 5.93246 11.6991 5.94926 11.7015 5.9662C11.703 5.97976 11.7054 5.99321 11.7086 6.00647C11.7146 6.04087 11.7173 6.07577 11.7165 6.11069V13.7682ZM14.1874 5.14275L13.0218 3.97722L11.8563 2.81164C13.0635 2.5882 14.1348 1.89988 14.8398 0.894711L15.4721 1.52697L16.1043 2.15924C15.0991 2.86417 14.4108 3.9355 14.1874 5.14275Z" fill="#808080"/>
<path d="M3.76789 7.68714H8.61893C8.71083 7.68714 8.79896 7.65064 8.86395 7.58566C8.92893 7.52067 8.96543 7.43254 8.96543 7.34064C8.96543 7.24874 8.92893 7.16061 8.86395 7.09563C8.79896 7.03065 8.71083 6.99414 8.61893 6.99414H3.76789C3.67599 6.99414 3.58786 7.03065 3.52287 7.09563C3.45789 7.16061 3.42139 7.24874 3.42139 7.34064C3.42139 7.43254 3.45789 7.52067 3.52287 7.58566C3.58786 7.65064 3.67599 7.68714 3.76789 7.68714Z" fill="#808080"/>
<path d="M10.3514 8.72656H3.76789C3.67599 8.72656 3.58786 8.76307 3.52287 8.82805C3.45789 8.89303 3.42139 8.98117 3.42139 9.07306C3.42139 9.16496 3.45789 9.2531 3.52287 9.31808C3.58786 9.38306 3.67599 9.41957 3.76789 9.41957H10.3515C10.4433 9.41957 10.5315 9.38306 10.5965 9.31808C10.6614 9.2531 10.698 9.16496 10.698 9.07306C10.698 8.98117 10.6614 8.89303 10.5965 8.82805C10.5315 8.76307 10.4433 8.72656 10.3514 8.72656Z" fill="#808080"/>
<path d="M10.3514 10.459H3.76789C3.67599 10.459 3.58786 10.4955 3.52287 10.5605C3.45789 10.6255 3.42139 10.7136 3.42139 10.8055C3.42139 10.8974 3.45789 10.9855 3.52287 11.0505C3.58786 11.1155 3.67599 11.152 3.76789 11.152H10.3515C10.4433 11.152 10.5315 11.1155 10.5965 11.0505C10.6614 10.9855 10.698 10.8974 10.698 10.8055C10.698 10.7136 10.6614 10.6255 10.5965 10.5605C10.5315 10.4955 10.4433 10.459 10.3514 10.459Z" fill="#808080"/>
<path d="M8.61856 12.1914H3.76751C3.67585 12.1918 3.58806 12.2284 3.52337 12.2934C3.45868 12.3583 3.42236 12.4462 3.42236 12.5379C3.42236 12.6296 3.45868 12.7175 3.52337 12.7824C3.58806 12.8474 3.67585 12.8841 3.76751 12.8844H8.61856C8.71022 12.8841 8.79801 12.8474 8.8627 12.7824C8.92739 12.7175 8.96371 12.6296 8.96371 12.5379C8.96371 12.4462 8.92739 12.3583 8.8627 12.2934C8.79801 12.2284 8.71022 12.1918 8.61856 12.1914Z" fill="#808080"/>
</svg>
