<svg width="20" height="20" viewBox="0 0 20 20" fill="none" xmlns="http://www.w3.org/2000/svg">
<g clip-path="url(#clip0_9_4371)">
<path d="M16.875 9.20625V18.4375H15V13.4375C15 13.0938 14.7188 12.8125 14.375 12.8125H11.875C11.5312 12.8125 11.25 13.0938 11.25 13.4375V18.4375H3.125V9.20625L9.375 3.4375H10.625L16.875 9.20625Z" fill="#FFB000"/>
<path d="M10.625 3.4375H9.375L3.125 9.20625V10.5884C5.30375 8.07344 8.50063 4.89406 10.9375 5.625C12.8125 6.25 14.7656 9.45312 16.875 10.7812V9.20625L10.625 3.4375Z" fill="#FF8939"/>
<path d="M16.6286 2.68841C16.6286 2.68841 18.8765 1.65154 18.0858 0.634665C17.4483 -0.185023 16.6286 0.816852 16.6286 0.816852C16.6286 0.816852 15.809 -0.185023 15.1715 0.634665C14.3808 1.65154 16.6286 2.68841 16.6286 2.68841Z" fill="#F96D60"/>
<path d="M19.6875 18.4375V19.6875H0.3125V18.4375H3.125H11.25H15H16.875H19.6875Z" fill="#80A53F"/>
<path d="M16.875 4.375V7.39687L14.6875 5.37188V4.375H16.875Z" fill="#564146"/>
<path d="M16.875 7.39687L19.6875 10L18.75 10.9375L16.875 9.20625L10.625 3.4375H9.375L3.125 9.20625L1.25 10.9375L0.3125 10L8.75 2.1875H11.25L14.6875 5.37188L16.875 7.39687Z" fill="#72565D"/>
<path d="M6.875 14.375V15.9375H5.625C5.45312 15.9375 5.3125 15.7969 5.3125 15.625V14.375H6.875Z" fill="#72ECF9"/>
<path d="M8.4375 13.125V14.375H6.875V12.8125H8.125C8.29688 12.8125 8.4375 12.9531 8.4375 13.125Z" fill="#72ECF9"/>
<path d="M8.4375 14.375V15.625C8.4375 15.7969 8.29688 15.9375 8.125 15.9375H6.875V14.375H8.4375Z" fill="#AAF4FB"/>
<path d="M6.875 12.8125V14.375H5.3125V13.125C5.3125 12.9531 5.45312 12.8125 5.625 12.8125H6.875Z" fill="#AAF4FB"/>
<path d="M15 13.4375V18.4375H11.25V13.4375C11.25 13.0938 11.5312 12.8125 11.875 12.8125H14.375C14.7188 12.8125 15 13.0938 15 13.4375Z" fill="#A67C52"/>
<path d="M15 13.4375V18.4375H11.25V17.1875H12.8194C13.3334 17.1875 13.75 16.7709 13.75 16.2569V12.8125H14.375C14.7188 12.8125 15 13.0938 15 13.4375Z" fill="#8C6239"/>
<path d="M12.6845 7.70011C14.1376 9.57199 10.0001 11.4814 10.0001 11.4814C10.0001 11.4814 5.8626 9.57199 7.31572 7.70011C8.49072 6.19074 10.0001 8.03449 10.0001 8.03449C10.0001 8.03449 11.5095 6.19074 12.6845 7.70011Z" fill="#F96D60"/>
<path d="M10 11.4813C10 11.4813 8.15 10.6282 7.35938 9.5001C8.16875 10.1313 9.0625 10.5438 9.0625 10.5438C9.0625 10.5438 12.6312 8.89697 11.975 7.1626C12.2156 7.24072 12.4563 7.40635 12.6844 7.7001C14.1375 9.57197 10 11.4813 10 11.4813Z" fill="#F34C39"/>
<path d="M8.39777 8.54933C8.49223 8.27066 8.40808 7.99028 8.20983 7.92308C8.01157 7.85588 7.77428 8.02731 7.67982 8.30597C7.58536 8.58464 7.66951 8.86502 7.86776 8.93223C8.06602 8.99943 8.30331 8.828 8.39777 8.54933Z" fill="#FFCAC4"/>
<path d="M13.75 16.25C13.5772 16.25 13.4375 16.1103 13.4375 15.9375V15.3125C13.4375 15.1397 13.5772 15 13.75 15C13.9228 15 14.0625 15.1397 14.0625 15.3125V15.9375C14.0625 16.1103 13.9228 16.25 13.75 16.25Z" fill="#72565D"/>
</g>
<defs>
<clipPath id="clip0_9_4371">
<rect width="20" height="20" fill="white"/>
</clipPath>
</defs>
</svg>
