<svg width="13" height="14" viewBox="0 0 13 14" fill="none" xmlns="http://www.w3.org/2000/svg">
<path d="M5.94264 1.97413V0.538462C5.94264 0.240955 6.19195 0 6.49977 0C6.80759 0 7.0569 0.240955 7.0569 0.538462V1.97413C7.0569 2.27164 6.80759 2.51259 6.49977 2.51259C6.19195 2.51259 5.94264 2.27164 5.94264 1.97413ZM10.7019 4.19535C10.8447 4.19535 10.9874 4.14285 11.0954 4.03718L12.1455 3.02151C12.3635 2.81083 12.3635 2.47026 12.1455 2.25958C11.9276 2.0489 11.5752 2.0489 11.3572 2.25958L10.307 3.27525C10.089 3.48593 10.089 3.8265 10.307 4.03718C10.4156 4.14218 10.5584 4.19535 10.7005 4.19535H10.7019ZM1.904 4.03785C2.01264 4.14285 2.15542 4.19602 2.29747 4.19602C2.44024 4.19602 2.58301 4.14352 2.69094 4.03785C2.90893 3.82853 2.90893 3.4866 2.69094 3.27592L1.64075 2.26025C1.42277 2.04957 1.07039 2.04957 0.852404 2.26025C0.634418 2.46957 0.634418 2.8115 0.852404 3.02218L1.90259 4.03785H1.904ZM1.48545 9.02461C1.66373 8.98894 1.84968 8.97413 2.04258 8.97413H10.9567C11.1496 8.97413 11.3356 8.98827 11.5138 9.02461V8.43566C11.5138 5.76489 9.26302 3.58951 6.49964 3.58951C3.73626 3.58951 1.48545 5.76489 1.48545 8.43566V9.02461ZM10.9567 10.051H2.04258C0.915783 10.051 0 10.9361 0 12.0252V12.7434C0 13.4359 0.582895 14 1.30021 14H11.6998C12.4164 14 13 13.4366 13 12.7434V12.0252C13 10.9361 12.0842 10.051 10.9574 10.051H10.9567Z" fill="white"/>
</svg>
