<svg width="113" height="113" viewBox="0 0 113 113" fill="none" xmlns="http://www.w3.org/2000/svg">
<rect width="113" height="113" rx="56.5" fill="#048372" fill-opacity="0.08"/>
<rect x="22" y="22" width="69" height="69" rx="34.5" fill="#048372" fill-opacity="0.12"/>
<path d="M71.125 43.5H50C47.3074 43.5 45.125 45.6824 45.125 48.375V53.25C45.125 55.9426 47.3074 58.125 50 58.125H71.125C73.8176 58.125 76 55.9426 76 53.25V48.375C76 45.6824 73.8176 43.5 71.125 43.5ZM54.6637 52.0052C55.1707 52.5122 55.1707 53.3361 54.6637 53.8447C54.4102 54.0982 54.0788 54.225 53.7456 54.225C53.4125 54.225 53.081 54.0982 52.8275 53.8447L51.6347 52.652L50.442 53.8447C50.1885 54.0982 49.857 54.225 49.5239 54.225C49.1907 54.225 48.8593 54.0982 48.6058 53.8447C48.0988 53.3377 48.0988 52.5139 48.6058 52.0052L49.7985 50.8125L48.6058 49.6198C48.0988 49.1128 48.0988 48.2889 48.6058 47.7802C49.1128 47.2732 49.935 47.2732 50.4436 47.7802L51.6364 48.973L52.8291 47.7802C53.3361 47.2732 54.1584 47.2732 54.667 47.7802C55.174 48.2872 55.174 49.1111 54.667 49.6198L53.4742 50.8125L54.667 52.0052H54.6637ZM63.5931 52.0052C64.1001 52.5122 64.1001 53.3361 63.5931 53.8447C63.3396 54.0982 63.0081 54.225 62.675 54.225C62.3419 54.225 62.0104 54.0982 61.7569 53.8447L60.5641 52.652L59.3714 53.8447C59.1179 54.0982 58.7864 54.225 58.4532 54.225C58.1201 54.225 57.7886 54.0982 57.5351 53.8447C57.0281 53.3377 57.0281 52.5139 57.5351 52.0052L58.7279 50.8125L57.5351 49.6198C57.0281 49.1128 57.0281 48.2889 57.5351 47.7802C58.0421 47.2732 58.8644 47.2732 59.373 47.7802L60.5658 48.973L61.7585 47.7802C62.2655 47.2732 63.0878 47.2732 63.5964 47.7802C64.1034 48.2872 64.1034 49.1111 63.5964 49.6198L62.4036 50.8125L63.5964 52.0052H63.5931ZM72.581 52.0052C73.088 52.5122 73.088 53.3361 72.581 53.8431C72.3275 54.0966 71.996 54.2234 71.6629 54.2234C71.3298 54.2234 70.9983 54.0966 70.7448 53.8431L69.5504 52.6488L68.356 53.8431C68.1025 54.0966 67.771 54.2234 67.4379 54.2234C67.1048 54.2234 66.7733 54.0966 66.5198 53.8431C66.0128 53.3361 66.0128 52.5122 66.5198 52.0052L67.7125 50.8125L66.5198 49.6198C66.0128 49.1128 66.0128 48.2889 66.5198 47.7819C67.0268 47.2749 67.849 47.2733 68.3576 47.7819L69.552 48.9762L70.7464 47.7819C71.2534 47.2749 72.0756 47.2749 72.5843 47.7819C73.0929 48.2889 73.0913 49.1128 72.5843 49.6198L71.3915 50.8125L72.5843 52.0052H72.581ZM61.375 61.375C60.4764 61.375 59.75 62.103 59.75 63H40.25V45.125C40.25 42.4373 42.4373 40.25 45.125 40.25H56.5C57.3986 40.25 58.125 39.522 58.125 38.625C58.125 37.728 57.3986 37 56.5 37H45.125C40.6449 37 37 40.6449 37 45.125V67.875C37 72.3551 40.6449 76 45.125 76H54.875C59.3551 76 63 72.3551 63 67.875V63C63 62.103 62.2736 61.375 61.375 61.375ZM54.875 72.75H45.125C42.4373 72.75 40.25 70.5628 40.25 67.875V66.25H59.75V67.875C59.75 70.5628 57.5627 72.75 54.875 72.75ZM52.8438 69.5C52.8438 70.397 52.1174 71.125 51.2188 71.125H48.7812C47.8826 71.125 47.1562 70.397 47.1562 69.5C47.1562 68.603 47.8826 67.875 48.7812 67.875H51.2188C52.1174 67.875 52.8438 68.603 52.8438 69.5Z" fill="#048372"/>
</svg>
