<svg width="11" height="14" viewBox="0 0 11 14" fill="none" xmlns="http://www.w3.org/2000/svg">
<path fill-rule="evenodd" clip-rule="evenodd" d="M2.44951 12.3366C2.63626 12.5233 2.88954 12.6282 3.15365 12.6282H7.11786C7.38196 12.6282 7.63525 12.5233 7.822 12.3365C7.97858 12.18 8.07851 11.9757 8.10598 11.7559L9.00147 4.59189H1.27003L2.16554 11.7559C2.193 11.9757 2.29293 12.1801 2.44951 12.3366ZM3.15365 13.7763H7.11786C7.68645 13.7763 8.23174 13.5504 8.63375 13.1484C8.97093 12.8112 9.18607 12.3714 9.2452 11.8983L10.2697 3.70194C10.2868 3.5649 10.1799 3.44385 10.0418 3.44385H0.229648C0.091538 3.44385 -0.0153223 3.5649 0.00180655 3.70194L1.02636 11.8983C1.08549 12.3714 1.30061 12.8112 1.63773 13.1484C2.03977 13.5504 2.58507 13.7763 3.15365 13.7763Z" fill="#FF0000"/>
<path fill-rule="evenodd" clip-rule="evenodd" d="M3.66768 6.0283C3.98418 6.01017 4.25546 6.25205 4.27358 6.56856L4.50371 10.5867C4.52184 10.9032 4.27994 11.1745 3.96344 11.1926C3.64693 11.2108 3.37566 10.9689 3.35754 10.6524L3.12742 6.6342C3.10929 6.3177 3.35118 6.04643 3.66768 6.0283ZM6.60982 6.0283C6.92633 6.04643 7.16821 6.3177 7.15008 6.6342L6.91997 10.6524C6.90184 10.9689 6.63057 11.2108 6.31406 11.1926C5.99756 11.1745 5.75567 10.9032 5.77379 10.5867L6.00392 6.56856C6.02205 6.25205 6.29332 6.01017 6.60982 6.0283Z" fill="#FF0000"/>
<path fill-rule="evenodd" clip-rule="evenodd" d="M0.835938 1.76128C0.835938 1.44425 1.09294 1.18726 1.40996 1.18726H8.86617C9.18314 1.18726 9.44019 1.44425 9.44019 1.76128C9.44019 2.0783 9.18314 2.3353 8.86617 2.3353H1.40996C1.09294 2.3353 0.835938 2.0783 0.835938 1.76128Z" fill="#FF0000"/>
<path fill-rule="evenodd" clip-rule="evenodd" d="M5.13931 2.29609C4.82229 2.2967 4.5648 2.04019 4.56419 1.72316L4.56201 0.575109C4.56142 0.258087 4.81792 0.000603784 5.13495 1.06001e-06C5.45197 -0.000601664 5.70946 0.255906 5.71006 0.572928L5.71224 1.72097C5.71285 2.03801 5.45633 2.29549 5.13931 2.29609Z" fill="#FF0000"/>
</svg>
