<svg width="36" height="36" viewBox="0 0 36 36" fill="none" xmlns="http://www.w3.org/2000/svg">
<path d="M13.5 26.6252C12.885 26.6252 12.375 26.1152 12.375 25.5002V19.2152L11.295 20.2952C10.86 20.7302 10.14 20.7302 9.70503 20.2952C9.27003 19.8602 9.27003 19.1402 9.70503 18.7052L12.705 15.7052C13.02 15.3902 13.515 15.2852 13.935 15.4652C14.355 15.6302 14.625 16.0502 14.625 16.5002V25.5002C14.625 26.1152 14.115 26.6252 13.5 26.6252Z" fill="#AECF5C"/>
<path d="M16.5 20.6252C16.215 20.6252 15.93 20.5202 15.705 20.2952L12.705 17.2952C12.27 16.8602 12.27 16.1402 12.705 15.7052C13.14 15.2702 13.86 15.2702 14.295 15.7052L17.295 18.7052C17.73 19.1402 17.73 19.8602 17.295 20.2952C17.07 20.5202 16.785 20.6252 16.5 20.6252Z" fill="#AECF5C"/>
<path d="M22.5 34.125H13.5C5.355 34.125 1.875 30.645 1.875 22.5V13.5C1.875 5.355 5.355 1.875 13.5 1.875H21C21.615 1.875 22.125 2.385 22.125 3C22.125 3.615 21.615 4.125 21 4.125H13.5C6.585 4.125 4.125 6.585 4.125 13.5V22.5C4.125 29.415 6.585 31.875 13.5 31.875H22.5C29.415 31.875 31.875 29.415 31.875 22.5V15C31.875 14.385 32.385 13.875 33 13.875C33.615 13.875 34.125 14.385 34.125 15V22.5C34.125 30.645 30.645 34.125 22.5 34.125Z" fill="#AECF5C"/>
<path d="M33 16.1252H27C21.87 16.1252 19.875 14.1302 19.875 9.00023V3.00023C19.875 2.55023 20.145 2.13023 20.565 1.96523C20.985 1.78523 21.465 1.89023 21.795 2.20523L33.795 14.2052C34.11 14.5202 34.215 15.0152 34.035 15.4352C33.855 15.8552 33.45 16.1252 33 16.1252ZM22.125 5.71523V9.00023C22.125 12.8702 23.13 13.8752 27 13.8752H30.285L22.125 5.71523Z" fill="#AECF5C"/>
</svg>
