<svg width="36" height="36" viewBox="0 0 36 36" fill="none" xmlns="http://www.w3.org/2000/svg">
<path d="M13.4999 26.6247C12.8849 26.6247 12.3749 26.1147 12.3749 25.4997V19.2147L11.2949 20.2947C10.8599 20.7297 10.1399 20.7297 9.70491 20.2947C9.26991 19.8597 9.26991 19.1397 9.70491 18.7047L12.7049 15.7047C13.0199 15.3897 13.5149 15.2847 13.9349 15.4647C14.3549 15.6297 14.6249 16.0497 14.6249 16.4997V25.4997C14.6249 26.1147 14.1149 26.6247 13.4999 26.6247Z" fill="#AECF5C"/>
<path d="M16.4999 20.6252C16.2149 20.6252 15.9299 20.5202 15.7049 20.2952L12.7049 17.2952C12.2699 16.8602 12.2699 16.1402 12.7049 15.7052C13.1399 15.2702 13.8599 15.2702 14.2949 15.7052L17.2949 18.7052C17.7299 19.1402 17.7299 19.8602 17.2949 20.2952C17.0699 20.5202 16.7849 20.6252 16.4999 20.6252Z" fill="#AECF5C"/>
<path d="M22.5 34.125H13.5C5.355 34.125 1.875 30.645 1.875 22.5V13.5C1.875 5.355 5.355 1.875 13.5 1.875H21C21.615 1.875 22.125 2.385 22.125 3C22.125 3.615 21.615 4.125 21 4.125H13.5C6.585 4.125 4.125 6.585 4.125 13.5V22.5C4.125 29.415 6.585 31.875 13.5 31.875H22.5C29.415 31.875 31.875 29.415 31.875 22.5V15C31.875 14.385 32.385 13.875 33 13.875C33.615 13.875 34.125 14.385 34.125 15V22.5C34.125 30.645 30.645 34.125 22.5 34.125Z" fill="#AECF5C"/>
<path d="M33 16.1247H27C21.87 16.1247 19.875 14.1297 19.875 8.99974V2.99974C19.875 2.54974 20.145 2.12974 20.565 1.96474C20.985 1.78474 21.465 1.88974 21.795 2.20474L33.795 14.2047C34.11 14.5197 34.215 15.0147 34.035 15.4347C33.855 15.8547 33.45 16.1247 33 16.1247ZM22.125 5.71474V8.99974C22.125 12.8697 23.13 13.8747 27 13.8747H30.285L22.125 5.71474Z" fill="#AECF5C"/>
</svg>
