<svg width="40" height="40" viewBox="0 0 40 40" fill="none" xmlns="http://www.w3.org/2000/svg">
<path fill-rule="evenodd" clip-rule="evenodd" d="M8.42469 12H31.5751C32.3539 12 33.0618 12.708 33.0618 13.4867V21.6991C32.5662 21.4867 32.0706 21.4159 31.5751 21.4159C29.2388 21.4159 27.3273 23.2566 27.3273 25.5928C27.3273 26.5132 27.6105 27.2919 28.1061 27.9999H8.42469C7.6459 27.9999 6.93799 27.2919 6.93799 26.4424V13.4867C6.93799 12.708 7.6459 12 8.42469 12ZM25.6282 25.0265C25.9114 25.0265 26.053 25.2389 26.053 25.5221C26.053 25.8053 25.9114 25.9468 25.6282 25.9468C25.345 25.9468 25.1326 25.8053 25.1326 25.5221C25.1326 25.2389 25.345 25.0265 25.6282 25.0265ZM22.23 25.0973H24.1414C24.7786 25.0973 24.7786 26.0177 24.1414 26.0177H22.23C21.5928 26.0177 21.5928 25.0973 22.23 25.0973ZM22.23 23.2566H26.761C27.3273 23.2566 27.3273 24.1769 26.761 24.1769H22.23C21.5928 24.1769 21.5928 23.2566 22.23 23.2566ZM22.23 21.4159H27.8229C28.46 21.4159 28.46 22.3363 27.8229 22.3363H22.23C21.5928 22.3363 21.5928 21.4159 22.23 21.4159ZM9.699 24.2478H13.876C14.5131 24.2478 14.5131 25.1681 13.876 25.1681H9.699C9.06185 25.1681 9.06185 24.2478 9.699 24.2478ZM8.63708 22.407H14.938C15.5751 22.407 15.5751 23.3274 14.938 23.3274H8.63708C7.99992 23.3274 7.99992 22.407 8.63708 22.407ZM23.2919 13.9823H30.6547C31.4334 13.9823 32.1414 14.6194 32.1414 15.469V18.0177C32.1414 18.8672 31.4334 19.5752 30.6547 19.5752H23.2919C22.5132 19.5752 21.8052 18.8672 21.8052 18.0177V15.469C21.8052 14.6194 22.5132 13.9823 23.2919 13.9823ZM11.7521 12.9204C13.876 12.9204 15.6459 14.6194 15.6459 16.7434C15.6459 18.8673 13.876 20.6372 11.7521 20.6372C9.62819 20.6372 7.9291 18.8673 7.9291 16.7434C7.9291 14.6194 9.62825 12.9204 11.7521 12.9204Z" fill="#FF3A70"/>
<path fill-rule="evenodd" clip-rule="evenodd" d="M11.7523 17.2389C12.7434 17.2389 13.593 17.9469 13.7345 18.938C14.3717 18.3717 14.7257 17.5929 14.7257 16.7433C14.7257 15.1858 13.3806 13.8407 11.7523 13.8407C10.1947 13.8407 8.84961 15.1858 8.84961 16.7433C8.84961 17.5929 9.20356 18.3717 9.76997 18.938C9.98236 17.9469 10.7611 17.2389 11.7523 17.2389C11.1859 17.2389 10.6903 16.7433 10.6903 16.1062C10.6903 15.5399 11.1859 15.0443 11.7523 15.0443C12.3894 15.0443 12.885 15.5399 12.885 16.1062C12.885 16.7434 12.3894 17.2389 11.7523 17.2389Z" fill="#FFB300"/>
<path fill-rule="evenodd" clip-rule="evenodd" d="M23.2919 14.9028H30.6547C30.9379 14.9028 31.2211 15.186 31.2211 15.4692V18.0179C31.2211 18.3718 30.9379 18.655 30.6547 18.655H23.2919C23.0087 18.655 22.7256 18.3718 22.7256 18.0179V15.4692C22.7256 15.186 23.0087 14.9028 23.2919 14.9028Z" fill="#FFB300"/>
<path d="M28.5931 21.5615L32.9976 21.1945V27.9848H26.7578L27.1249 24.8649L28.5931 21.5615Z" fill="#FF3A70"/>
</svg>
