<svg width="11" height="12" viewBox="0 0 11 12" fill="none" xmlns="http://www.w3.org/2000/svg">
<path d="M0.901003 9.63796L2.8381 9.45406C3.0261 9.43362 3.20592 9.35189 3.3367 9.21702L3.70553 8.84818L1.24532 6.38794L0.876482 6.75678C0.741622 6.88756 0.659886 7.06738 0.639445 7.25538L0.455543 9.1925C0.431022 9.44998 0.643538 9.66249 0.901003 9.63796Z" fill="#5D5D5D"/>
<path d="M10.1395 11.0352H9.66747C9.44167 11.0352 9.25879 11.218 9.25879 11.4438C9.25879 11.6696 9.44167 11.8525 9.66747 11.8525H10.1395C10.3653 11.8525 10.5482 11.6696 10.5482 11.4438C10.5482 11.2175 10.3653 11.0352 10.1395 11.0352Z" fill="#5D5D5D"/>
<path d="M7.54739 11.0352H0.408685C0.182881 11.0352 0 11.218 0 11.4438C0 11.6696 0.182881 11.8525 0.408685 11.8525H7.54739C7.77319 11.8525 7.95607 11.6696 7.95607 11.4438C7.95607 11.2175 7.77319 11.0352 7.54739 11.0352Z" fill="#5D5D5D"/>
<path d="M9.85542 1.54996L8.54763 0.242153C8.22886 -0.0807176 7.70983 -0.0807176 7.39105 0.242153L6.77393 0.859279L9.23623 3.32161L9.85539 2.70244C10.1742 2.38367 10.1742 1.86873 9.85542 1.54996Z" fill="#5D5D5D"/>
<path d="M1.82373 5.80928L6.1962 1.43677L8.65746 3.89805L4.28499 8.27056L1.82373 5.80928Z" fill="#5D5D5D"/>
</svg>
