<svg width="140" height="127" viewBox="0 0 140 127" fill="none" xmlns="http://www.w3.org/2000/svg">
<circle cx="68.5573" cy="69.2148" r="57.7065" fill="#FF4C4C" fill-opacity="0.13"/>
<circle cx="14.4678" cy="30.251" r="3.61693" fill="#FF4C4C"/>
<circle cx="109.659" cy="6.74065" r="6.74065" fill="#FF4C4C"/>
<circle cx="15.6184" cy="106.371" r="6.41183" fill="#FF4C4C"/>
<circle cx="130.374" cy="100.124" r="6.41183" fill="#FF4C4C"/>
<circle cx="117.879" cy="107.357" r="3.12371" fill="#FF4C4C"/>
<path d="M133.385 80.3389L134.392 85.0959L139.081 86.1174L134.392 87.1389L133.385 91.896L132.378 87.1389L127.689 86.1174L132.378 85.0959L133.385 80.3389Z" fill="#FF4C4C"/>
<path d="M127.15 32.7765C127.273 32.1988 128.097 32.1988 128.22 32.7765L128.619 34.6625C128.663 34.8728 128.827 35.0375 129.037 35.0832L130.93 35.4956C131.504 35.6206 131.504 36.4385 130.93 36.5634L129.037 36.9759C128.827 37.0216 128.663 37.1863 128.619 37.3966L128.22 39.2825C128.097 39.8602 127.273 39.8602 127.15 39.2825L126.751 37.3966C126.707 37.1863 126.543 37.0216 126.333 36.9759L124.44 36.5634C123.866 36.4385 123.866 35.6206 124.44 35.4956L126.333 35.0832C126.543 35.0375 126.707 34.8728 126.751 34.6625L127.15 32.7765Z" fill="#FF4C4C"/>
<path d="M7.75188 72.5622C7.87416 71.9845 8.69877 71.9845 8.82105 72.5622L9.67817 76.6115C9.72269 76.8218 9.88639 76.9865 10.0964 77.0323L14.1221 77.9093C14.6956 78.0342 14.6956 78.8522 14.1221 78.9771L10.0964 79.8541C9.88639 79.8998 9.72269 80.0645 9.67817 80.2748L8.82105 84.3242C8.69877 84.9019 7.87416 84.9019 7.75188 84.3242L6.89476 80.2748C6.85024 80.0645 6.68654 79.8998 6.47648 79.8541L2.4508 78.9771C1.87731 78.8522 1.87731 78.0342 2.4508 77.9093L6.47649 77.0323C6.68654 76.9865 6.85024 76.8219 6.89476 76.6115L7.75188 72.5622Z" fill="#FF4C4C"/>
<path d="M28.9998 16.4054C28.683 16.338 28.683 15.8859 28.9998 15.8185L31.2569 15.3385C31.3724 15.314 31.4627 15.224 31.4877 15.1087L31.9752 12.8607C32.0435 12.5454 32.4932 12.5454 32.5616 12.8607L33.049 15.1087C33.074 15.224 33.1644 15.314 33.2798 15.3385L35.537 15.8185C35.8538 15.8859 35.8538 16.338 35.537 16.4054L33.2798 16.8854C33.1644 16.9099 33.074 16.9999 33.049 17.1153L32.5616 19.3633C32.4932 19.6785 32.0435 19.6785 31.9752 19.3633L31.4877 17.1153C31.4627 16.9999 31.3724 16.9099 31.2569 16.8854L28.9998 16.4054Z" fill="#FF4C4C"/>
<path d="M90.688 35.6241L69.041 57.2711L47.394 35.6241C46.9877 35.205 46.4289 34.9684 45.8452 34.9684C45.2614 34.9684 44.7026 35.205 44.2963 35.6241L34.7044 45.201C34.2806 45.6078 34.041 46.1699 34.041 46.7574C34.041 47.3449 34.2806 47.9069 34.7044 48.3137L56.3514 69.9607L34.7044 91.6077C34.2853 92.014 34.0488 92.5728 34.0488 93.1565C34.0488 93.7403 34.2853 94.2991 34.7044 94.7054L44.2814 104.297C44.6882 104.721 45.2502 104.961 45.8377 104.961C46.4252 104.961 46.9872 104.721 47.394 104.297L69.041 82.6503L90.688 104.297C91.0943 104.716 91.6531 104.953 92.2369 104.953C92.8206 104.953 93.3794 104.716 93.7858 104.297L103.378 94.7203C103.801 94.3135 104.041 93.7515 104.041 93.164C104.041 92.5765 103.801 92.0145 103.378 91.6077L81.7306 69.9607L103.378 48.3137C103.797 47.9074 104.033 47.3486 104.033 46.7648C104.033 46.1811 103.797 45.6223 103.378 45.216L93.8007 35.6241C93.3939 35.2003 92.8318 34.9607 92.2443 34.9607C91.6569 34.9607 91.0948 35.2003 90.688 35.6241Z" fill="#FF4C4C"/>
</svg>
