<svg width="127" height="127" viewBox="0 0 127 127" fill="none" xmlns="http://www.w3.org/2000/svg">
<g clip-path="url(#clip0_366_34403)">
<path d="M63.5 127C98.5701 127 127 98.5701 127 63.5C127 28.4299 98.5701 0 63.5 0C28.4299 0 0 28.4299 0 63.5C0 98.5701 28.4299 127 63.5 127Z" fill="#048372"/>
<path d="M63.5 115.189C92.0471 115.189 115.189 92.0466 115.189 63.4995C115.189 34.9525 92.0471 11.8105 63.5 11.8105C34.953 11.8105 11.811 34.9525 11.811 63.4995C11.811 92.0466 34.953 115.189 63.5 115.189Z" fill="#AECF5C"/>
<path fill-rule="evenodd" clip-rule="evenodd" d="M64.0076 88.0105C55.4986 88.0105 48.6406 81.1525 48.6406 72.6435V58.2925C48.6406 57.9115 48.8946 57.5305 49.2756 57.5305C56.0066 56.6415 57.2766 49.5295 57.2766 49.5295C57.4036 49.1485 57.6576 48.8945 58.0386 48.8945C58.4196 48.8945 58.8006 49.1485 58.8006 49.5295C59.6896 54.1015 63.2456 56.8955 69.3416 57.6575C74.0406 58.2925 78.4856 57.5305 78.6126 57.5305C78.8666 57.5305 78.9936 57.5305 79.2476 57.7845C79.3746 57.9115 79.5016 58.0385 79.5016 58.2925V72.6435C79.5016 81.1525 72.5166 88.0105 64.0076 88.0105ZM50.1646 58.9275V72.6435C50.1646 80.2635 56.3876 86.4865 64.1346 86.4865C71.7546 86.4865 77.9776 80.2635 77.9776 72.6435V59.1815C76.3266 59.4355 72.8976 59.6895 69.2146 59.1815C63.4996 58.4195 59.6896 56.0065 58.0386 52.1965C57.7846 52.7045 57.5306 53.3395 57.1496 53.9745C55.4986 56.6415 53.0856 58.2925 50.1646 58.9275Z" fill="#FEFEFE"/>
<path fill-rule="evenodd" clip-rule="evenodd" d="M49.4026 66.1667C49.2756 66.1667 49.0216 66.1667 48.8946 66.0397C48.7676 65.9127 46.4816 64.0077 44.9576 60.7057C43.5606 57.7847 42.7986 52.9587 46.6086 47.7517C46.7356 47.4977 50.0376 43.0527 56.1336 43.3067C56.7686 42.6717 58.2926 41.1477 60.7056 40.0047C63.6266 38.8617 68.1986 37.9727 74.0406 41.2747C77.7236 43.1797 80.3906 46.4817 81.6606 50.2917C83.1846 55.1177 82.4226 60.1977 79.3746 65.6587C79.1206 65.9127 78.7396 66.0397 78.3586 65.9127C77.9776 65.6587 77.8506 65.2777 78.1046 64.8967C80.8986 59.8167 81.5336 55.1177 80.1366 50.6727C79.1206 47.2437 76.7076 44.3227 73.4056 42.5447C69.0876 40.2587 65.0236 39.8777 61.3406 41.4017C58.5466 42.6717 57.1496 44.4497 57.1496 44.4497C56.8956 44.7037 56.6416 44.8307 56.3876 44.8307C50.7996 44.4497 47.7516 48.5137 47.7516 48.6407C45.0846 52.3237 44.5766 56.2607 46.3546 60.0707C47.7516 62.9917 49.7836 64.7697 49.9106 64.7697C50.1646 65.0237 50.1646 65.5317 49.9106 65.9127C49.7836 66.0397 49.6566 66.1667 49.4026 66.1667Z" fill="#FEFEFE"/>
<path fill-rule="evenodd" clip-rule="evenodd" d="M62.2298 79.7553C62.1028 79.7553 61.8488 79.6283 61.7218 79.5013L55.1178 72.8973C54.9908 72.6433 54.8638 72.5163 54.8638 72.2623C54.8638 72.1353 54.8638 71.8813 55.1178 71.7543L57.5308 69.3413C57.6578 69.2143 57.9118 69.0873 58.0388 69.0873C58.2928 69.0873 58.4198 69.2143 58.5468 69.3413L62.2298 73.0243L69.4688 65.6583C69.8498 65.4043 70.2308 65.4043 70.6118 65.6583L73.0248 68.1983C73.1518 68.3253 73.2788 68.4523 73.2788 68.7063C73.2788 68.9603 73.1518 69.0873 73.0248 69.2143L62.7378 79.5013C62.6108 79.6283 62.4838 79.7553 62.2298 79.7553ZM56.6418 72.2623L62.2298 77.8503L71.5008 68.7063L70.1038 67.3093L62.8648 74.5483C62.6108 74.6753 62.4838 74.8023 62.2298 74.8023C62.1028 74.8023 61.8488 74.8023 61.7218 74.5483L58.0388 70.9923L56.6418 72.2623Z" fill="#FEFEFE"/>
<path fill-rule="evenodd" clip-rule="evenodd" d="M49.403 72.5166H47.879C46.228 72.5166 44.958 71.2466 44.958 69.5956V67.5636C44.958 65.9126 46.228 64.6426 47.879 64.6426H49.403C49.784 64.6426 50.165 65.0236 50.165 65.4046V71.7546C50.165 72.1356 49.784 72.5166 49.403 72.5166ZM47.879 66.1666C47.117 66.1666 46.482 66.8016 46.482 67.5636V69.5956C46.482 70.3576 47.117 70.9926 47.879 70.9926H48.641V66.1666H47.879Z" fill="#FEFEFE"/>
<path fill-rule="evenodd" clip-rule="evenodd" d="M80.264 72.3896H78.74C78.359 72.3896 77.978 72.0086 77.978 71.6276V65.2776C77.978 64.7696 78.359 64.5156 78.74 64.5156H80.264C81.915 64.5156 83.185 65.7856 83.185 67.4366V69.4686C83.185 71.1196 81.915 72.3896 80.264 72.3896ZM79.502 70.8656H80.264C81.026 70.8656 81.661 70.2306 81.661 69.4686V67.4366C81.661 66.6746 81.026 66.0396 80.264 66.0396H79.502V70.8656Z" fill="#FEFEFE"/>
<path fill-rule="evenodd" clip-rule="evenodd" d="M95.2497 93.9799H75.5647C75.1837 93.9799 74.8027 93.7259 74.8027 93.2179V87.6299C74.8027 87.2489 75.1837 86.8679 75.5647 86.8679H88.3917V75.1839C88.3917 74.8029 88.7727 74.4219 89.1537 74.4219H95.2497C95.6307 74.4219 96.0117 74.8029 96.0117 75.1839V93.2179C96.0117 93.7259 95.6307 93.9799 95.2497 93.9799ZM76.3267 92.4559H94.4877V75.9459H89.9157V87.6299C89.9157 88.1379 89.5347 88.3919 89.1537 88.3919H76.3267V92.4559Z" fill="#FEFEFE"/>
<path fill-rule="evenodd" clip-rule="evenodd" d="M51.4348 93.9799H31.7498C31.3688 93.9799 30.9878 93.7259 30.9878 93.2179V75.1839C30.9878 74.8029 31.3688 74.4219 31.7498 74.4219H37.8458C38.2268 74.4219 38.6078 74.8029 38.6078 75.1839V86.8679H51.4348C51.8158 86.8679 52.1968 87.2489 52.1968 87.6299V93.2179C52.1968 93.7259 51.8158 93.9799 51.4348 93.9799ZM32.5118 92.4559H50.6728V88.3919H37.8458C37.4648 88.3919 37.0838 88.1379 37.0838 87.6299V75.9459H32.5118V92.4559Z" fill="#FEFEFE"/>
<path fill-rule="evenodd" clip-rule="evenodd" d="M37.8458 52.5775H31.7498C31.3688 52.5775 30.9878 52.1965 30.9878 51.8155V33.7815C30.9878 33.2735 31.3688 33.0195 31.7498 33.0195H51.4348C51.8158 33.0195 52.1968 33.2735 52.1968 33.7815V39.3695C52.1968 39.7505 51.8158 40.1315 51.4348 40.1315H38.6078V51.8155C38.6078 52.1965 38.2268 52.5775 37.8458 52.5775ZM32.5118 51.0535H37.0838V39.3695C37.0838 38.8615 37.4648 38.6075 37.8458 38.6075H50.6728V34.5435H32.5118V51.0535Z" fill="#FEFEFE"/>
<path fill-rule="evenodd" clip-rule="evenodd" d="M95.2497 52.5775H89.1537C88.7727 52.5775 88.3917 52.1965 88.3917 51.8155V40.1315H75.5647C75.1837 40.1315 74.8027 39.7505 74.8027 39.3695V33.7815C74.8027 33.2735 75.1837 33.0195 75.5647 33.0195H95.2497C95.6307 33.0195 96.0117 33.2735 96.0117 33.7815V51.8155C96.0117 52.1965 95.6307 52.5775 95.2497 52.5775ZM89.9157 51.0535H94.4877V34.5435H76.3267V38.6075H89.1537C89.5347 38.6075 89.9157 38.8615 89.9157 39.3695V51.0535Z" fill="#FEFEFE"/>
</g>
<defs>
<clipPath id="clip0_366_34403">
<rect width="127" height="127" fill="white"/>
</clipPath>
</defs>
</svg>
