<svg width="12" height="12" viewBox="0 0 12 12" fill="none" xmlns="http://www.w3.org/2000/svg">
<path d="M2.74753 0C2.02206 0 1.41206 0.499651 1.22876 1.16964H0.410654C0.356667 1.16942 0.303172 1.1799 0.253253 1.20047C0.203335 1.22103 0.157981 1.25127 0.119806 1.28944C0.0816319 1.32762 0.0513918 1.37297 0.0308299 1.42289C0.0102681 1.47281 -0.000208919 1.5263 3.15824e-06 1.58029C0.00021181 1.634 0.0109992 1.68715 0.0317493 1.7367C0.0524995 1.78625 0.082806 1.83123 0.120939 1.86906C0.159071 1.9069 0.204283 1.93685 0.253992 1.95721C0.303702 1.97758 0.356935 1.98795 0.410654 1.98774H1.22716C1.40921 2.65957 2.02074 3.16137 2.74753 3.16137C3.46699 3.16137 4.07342 2.66929 4.2623 2.00771L11.0444 1.98774C11.0982 1.98764 11.1513 1.97695 11.2009 1.9563C11.2505 1.93564 11.2955 1.90542 11.3334 1.86737C11.3714 1.82931 11.4014 1.78416 11.4219 1.73449C11.4423 1.68482 11.4528 1.63161 11.4527 1.57789C11.4525 1.46968 11.4094 1.36596 11.3329 1.28945C11.2564 1.21293 11.1526 1.16985 11.0444 1.16964L4.27349 1.18961C4.09724 0.509338 3.48035 8.19394e-07 2.74753 0ZM2.74753 0.818106C3.17375 0.818106 3.51051 1.15407 3.51051 1.58029C3.51051 2.0065 3.17375 2.34327 2.74753 2.34327C2.32131 2.34327 1.98535 2.0065 1.98535 1.58029C1.98535 1.15407 2.32131 0.818106 2.74753 0.818106ZM7.11768 3.95311C6.38021 3.95311 5.75959 4.46164 5.57655 5.14352H0.410654C0.356868 5.14331 0.30357 5.15371 0.253808 5.17412C0.204047 5.19454 0.1588 5.22456 0.120657 5.26248C0.0825136 5.3004 0.0522236 5.34547 0.0315203 5.39511C0.0108171 5.44475 0.000107012 5.49799 3.15824e-06 5.55177C-0.000103352 5.60569 0.0104515 5.6591 0.0310606 5.70893C0.0516697 5.75875 0.0819265 5.80401 0.120091 5.8421C0.158255 5.88019 0.203573 5.91036 0.253439 5.93087C0.303305 5.95138 0.356734 5.96184 0.410654 5.96163H5.57734C5.76098 6.64331 6.38083 7.15283 7.11768 7.15283C7.85454 7.15283 8.47439 6.64331 8.65802 5.96163H11.0444C11.0982 5.96152 11.1513 5.95084 11.2009 5.93018C11.2505 5.90953 11.2955 5.87931 11.3334 5.84125C11.3714 5.80319 11.4014 5.75804 11.4219 5.70837C11.4423 5.6587 11.4528 5.60549 11.4527 5.55177C11.4525 5.44356 11.4094 5.33985 11.3329 5.26333C11.2564 5.18681 11.1526 5.14373 11.0444 5.14352H8.65882C8.47578 4.46164 7.85515 3.95311 7.11768 3.95311ZM7.11768 4.77122C7.55487 4.77122 7.90063 5.11459 7.90063 5.55177C7.90063 5.98896 7.55487 6.33473 7.11768 6.33473C6.68049 6.33473 6.33473 5.98896 6.33473 5.55177C6.33473 5.11459 6.68049 4.77122 7.11768 4.77122ZM3.93874 8.12353C3.20212 8.12353 2.58146 8.6326 2.3976 9.31394H0.410654C0.356666 9.31373 0.303171 9.32421 0.253253 9.34477C0.203335 9.36533 0.157981 9.39557 0.119806 9.43375C0.0816317 9.47192 0.0513916 9.51728 0.0308298 9.5672C0.0102679 9.61711 -0.000208981 9.67061 3.15824e-06 9.72459C0.00021185 9.77831 0.0109993 9.83146 0.0317494 9.88101C0.0524996 9.93056 0.0828061 9.97553 0.120939 10.0134C0.159071 10.0512 0.204283 10.0812 0.253992 10.1015C0.303702 10.1219 0.356935 10.1323 0.410654 10.132H2.3968C2.57949 10.8151 3.2009 11.3257 3.93874 11.3257C4.67655 11.3257 5.29716 10.8151 5.47987 10.132H11.0444C11.1525 10.1318 11.2561 10.0889 11.3326 10.0125C11.4091 9.93618 11.4523 9.83266 11.4527 9.72459C11.4529 9.67081 11.4425 9.61751 11.4221 9.56775C11.4017 9.51799 11.3716 9.47274 11.3337 9.4346C11.2958 9.39646 11.2507 9.36617 11.2011 9.34546C11.1515 9.32476 11.0982 9.31405 11.0444 9.31394H5.47907C5.29518 8.63263 4.67532 8.12353 3.93874 8.12353ZM3.93874 8.94164C4.37593 8.94164 4.72169 9.28741 4.72169 9.72459C4.72169 10.1618 4.37593 10.5075 3.93874 10.5075C3.50154 10.5075 3.15578 10.1618 3.15578 9.72459C3.15578 9.28741 3.50154 8.94164 3.93874 8.94164Z" fill="#048372"/>
</svg>
