<svg width="21" height="20" viewBox="0 0 21 20" fill="none" xmlns="http://www.w3.org/2000/svg">
<path d="M8.21289 1.14941C9.22951 0.333049 10.8229 0.286924 11.9248 1.00684L12.1387 1.16113L18.6836 6.39648V6.39746C19.0615 6.70556 19.3895 7.18882 19.6006 7.74121C19.8106 8.29107 19.8889 8.8673 19.8164 9.34766L18.5576 16.8848C18.3086 18.3182 16.9134 19.5 15.4697 19.5H4.87012C3.49692 19.5 2.21301 18.4867 1.85254 17.1641L1.79297 16.8955L0.533203 9.35742V9.35645L0.509766 9.1709C0.471646 8.72788 0.550536 8.2244 0.734375 7.74219C0.918214 7.2601 1.19457 6.83066 1.51953 6.52441L1.66211 6.40039L8.21289 1.15039V1.14941ZM10.1699 11.75C9.48379 11.75 8.91993 12.3139 8.91992 13V16C8.91992 16.6861 9.48378 17.25 10.1699 17.25C10.856 17.25 11.4199 16.6861 11.4199 16V13C11.4199 12.3139 10.856 11.75 10.1699 11.75Z" fill="white" stroke="#048372"/>
</svg>
