<svg width="21" height="20" viewBox="0 0 21 20" fill="none" xmlns="http://www.w3.org/2000/svg">
<path d="M8.36914 1.34473C9.36067 0.548379 10.9718 0.551154 11.9824 1.35645L18.5264 6.59082V6.5918C18.8631 6.86648 19.1682 7.30922 19.3672 7.83008C19.5663 8.35109 19.6345 8.88637 19.5684 9.31641L18.3105 16.8418C18.0821 18.1571 16.7903 19.25 15.4697 19.25H4.87012C3.61176 19.25 2.42546 18.3145 2.09375 17.0996L2.03906 16.8535L0.779297 9.31641V9.31445C0.706149 8.88255 0.770165 8.34933 0.967773 7.83105C1.16537 7.31288 1.47305 6.87155 1.81738 6.59668L1.81934 6.5957L8.36914 1.3457V1.34473ZM10.1699 11.5C9.34571 11.5 8.66993 12.1758 8.66992 13V16C8.66992 16.8242 9.34571 17.5 10.1699 17.5C10.9941 17.5 11.6699 16.8242 11.6699 16V13C11.6699 12.1758 10.9941 11.5 10.1699 11.5Z" stroke="#DCDCDC" stroke-width="1.5"/>
</svg>
