<svg width="18" height="18" viewBox="0 0 18 18" fill="none" xmlns="http://www.w3.org/2000/svg">
<path d="M7.30713 11.3734C7.30713 11.7958 7.0522 12.176 6.66325 12.3377C6.27284 12.4994 5.82418 12.4105 5.52554 12.1119C5.22692 11.8133 5.13804 11.3646 5.29975 10.9742C5.46145 10.5838 5.84164 10.3303 6.26409 10.3303C6.8395 10.3303 7.30567 10.798 7.30713 11.3734Z" fill="#DCDCDC"/>
<path d="M10.4506 6.14385C10.4506 7.53503 12.5366 7.53503 12.5366 6.14385C12.5366 4.75413 10.4506 4.75413 10.4506 6.14385Z" fill="#DCDCDC"/>
<path d="M8.87854 1.31802C9.58504 1.31948 10.2522 0.993173 10.6849 0.433791C10.9835 0.0492359 11.4977 -0.0993724 11.9551 0.0681542C12.414 0.234219 12.7126 0.678511 12.6937 1.16506C12.6675 1.87156 12.969 2.55038 13.5095 3.00344C14.0513 3.45795 14.771 3.63711 15.4615 3.48853C15.9378 3.38656 16.4273 3.60216 16.6705 4.02461C16.9138 4.44705 16.8585 4.97876 16.5307 5.34C16.0573 5.86295 15.8519 6.57676 15.9742 7.27162C16.0966 7.96793 16.5336 8.56811 17.1586 8.89732C17.5883 9.12603 17.8243 9.60527 17.7383 10.086C17.6538 10.5667 17.2693 10.9367 16.7871 11.0037C16.0864 11.0999 15.4717 11.515 15.1177 12.1268C14.7652 12.7387 14.7142 13.4787 14.9807 14.1327C15.1628 14.5843 15.0346 15.1029 14.6617 15.4161C14.2873 15.7293 13.7556 15.7672 13.3419 15.5079C12.7432 15.132 12.0061 15.0534 11.3418 15.2952C10.6776 15.537 10.1633 16.0716 9.9463 16.7432C9.79626 17.2079 9.36507 17.5225 8.87707 17.5225C8.38907 17.5225 7.9579 17.2078 7.80783 16.7432C7.59079 16.0716 7.07658 15.537 6.41229 15.2952C5.74951 15.0548 5.01094 15.1335 4.41222 15.5079C3.99995 15.7672 3.46679 15.7308 3.09387 15.4176C2.72095 15.1029 2.59129 14.5843 2.77485 14.1327C3.04143 13.4787 2.99045 12.7387 2.63646 12.1268C2.28394 11.5165 1.66919 11.1013 0.968508 11.0037C0.486322 10.9367 0.101767 10.5667 0.0172634 10.086C-0.0672264 9.60673 0.167303 9.12603 0.598495 8.89878C1.22198 8.5681 1.659 7.96793 1.7799 7.27162C1.90227 6.57676 1.69687 5.86299 1.22198 5.34C0.895674 4.97728 0.840334 4.44705 1.08505 4.02461C1.32832 3.60362 1.81776 3.38658 2.29412 3.48999C2.98462 3.63858 3.70421 3.4594 4.24614 3.0049C4.78657 2.55187 5.08811 1.87301 5.0619 1.16797C5.04296 0.679966 5.34159 0.237124 5.80047 0.0696085C6.25789 -0.0964563 6.77211 0.0506711 7.0722 0.435245L7.53253 0.0783498L7.0722 0.436703C7.50337 0.994628 8.17201 1.32093 8.87854 1.31802ZM13.7019 6.14401C13.7019 5.25105 13.1629 4.44547 12.3384 4.10458C11.5125 3.76226 10.5627 3.95163 9.93193 4.58237C9.29972 5.21458 9.11181 6.16437 9.45266 6.99031C9.79499 7.8148 10.6005 8.35232 11.4935 8.35232C12.7128 8.35087 13.7004 7.3633 13.7019 6.14401ZM4.05409 11.3738C4.05409 12.2668 4.59307 13.0723 5.41755 13.4147C6.2435 13.757 7.19328 13.5676 7.82549 12.9369C8.45771 12.3047 8.64562 11.3549 8.30477 10.5289C7.96244 9.70446 7.15689 9.16548 6.26389 9.16548C5.04463 9.16693 4.05554 10.1545 4.05409 11.3738ZM6.20274 5.12143C5.97986 4.88981 5.61132 4.88398 5.3797 5.10686C5.14809 5.32974 5.1408 5.69973 5.36514 5.93135L11.5534 12.3467C11.7762 12.5783 12.1462 12.5856 12.3779 12.3612C12.6095 12.1384 12.6153 11.7684 12.3924 11.5368L6.20274 5.12143Z" fill="#DCDCDC"/>
</svg>
