<svg width="23" height="24" viewBox="0 0 23 24" fill="none" xmlns="http://www.w3.org/2000/svg">
<path d="M11.4915 4.07516e-05C11.3877 0.00113081 11.285 0.0218433 11.1888 0.0621791L0.510189 4.52734C0.201086 4.65598 0 4.96231 0 5.30241V18.6979C0 19.0369 0.20108 19.3433 0.510189 19.4719L11.1888 23.937C11.3877 24.021 11.6123 24.021 11.8112 23.937L22.4898 19.4719C22.7989 19.3432 23 19.0369 23 18.6979V5.30241C23 4.96228 22.7989 4.65706 22.4898 4.52734L11.8112 0.0621791C11.7096 0.0196652 11.6016 -0.00104763 11.4915 4.07516e-05ZM11.5 1.74207L20.0138 5.30248L16.9047 6.60301L8.38981 3.0426L11.5 1.74207ZM5.99288 4.04551L14.7816 7.49038L11.5003 8.86286L2.98645 5.30245L5.99288 4.04551ZM1.64287 6.55063L10.6786 10.329V21.915L1.64287 18.1366V6.55063ZM21.3572 6.55063V18.1366L17.7976 19.6257V15.9074L15.6072 16.7446V20.5405L12.3214 21.9141V10.3281L15.6072 8.95453V12.5585L17.7976 11.7213V8.0389L21.3572 6.55063Z" fill="#B3B3B3"/>
</svg>
