<svg width="12" height="13" viewBox="0 0 12 13" fill="none" xmlns="http://www.w3.org/2000/svg">
<path d="M4.97827 11.1145C4.97827 11.7912 5.52894 12.3418 6.20557 12.3418C6.88219 12.3418 7.43286 11.7912 7.43286 11.1145C7.43286 10.4378 6.88219 9.88721 6.20557 9.88721C5.52894 9.88721 4.97827 10.4378 4.97827 11.1145Z" fill="white"/>
<path d="M2.58893 10.8442C2.91685 10.8442 3.22511 10.7165 3.45666 10.4848C3.68846 10.253 3.81622 9.94474 3.81622 9.61694C3.81622 9.28903 3.68846 8.98077 3.45666 8.74909C3.22511 8.51729 2.91685 8.38965 2.58893 8.38965C2.26101 8.38965 1.95299 8.51729 1.72119 8.74897C1.4894 8.98077 1.36163 9.28903 1.36163 9.61694C1.36163 9.94474 1.4894 10.253 1.72095 10.4846C1.95275 10.7165 2.26101 10.8442 2.58893 10.8442Z" fill="white"/>
<path d="M2.81334e-05 6.00087C2.81334e-05 6.60244 0.489384 7.0918 1.09096 7.0918C1.69253 7.0918 2.18188 6.60244 2.18188 6.00087C2.18188 5.39918 1.69253 4.90982 1.09096 4.90982C0.489384 4.90982 2.81334e-05 5.39918 2.81334e-05 6.00087Z" fill="white"/>
<path d="M2.58889 1.42986C2.34429 1.42986 2.09969 1.5229 1.91362 1.70897C1.54124 2.08135 1.54124 2.68738 1.91362 3.05976C2.28577 3.43214 2.89156 3.43167 3.26417 3.05976C3.63655 2.68738 3.63655 2.08135 3.26417 1.70897V1.70874C3.07786 1.5229 2.83326 1.42986 2.58889 1.42986Z" fill="white"/>
<path d="M7.09186 0.88657C7.09186 0.397875 6.69417 0.000192404 6.20548 0.000192404C5.71678 0.000192404 5.3191 0.397875 5.3191 0.88657C5.3191 1.37527 5.71678 1.77295 6.20548 1.77295C6.69417 1.77295 7.09186 1.37527 7.09186 0.88657Z" fill="white"/>
<path d="M10.6392 2.38435C10.6392 2.16595 10.5539 1.96034 10.3995 1.80586C10.2399 1.64632 10.0306 1.56642 9.82096 1.56669C9.61135 1.56669 9.40148 1.64632 9.24194 1.80613C8.9234 2.1252 8.9234 2.64403 9.24221 2.96284C9.56155 3.28218 10.0806 3.28165 10.3995 2.96284C10.5539 2.80837 10.6392 2.60302 10.6392 2.38435Z" fill="white"/>
<path d="M11.3189 6.68213C11.695 6.68213 12.0007 6.37624 12.0007 6.0003C12.0007 5.62423 11.695 5.31847 11.3189 5.31847C10.9428 5.31847 10.6371 5.62423 10.6371 6.0003C10.6371 6.37624 10.9428 6.68213 11.3189 6.68213Z" fill="white"/>
<path d="M9.43547 9.23119C9.22266 9.44386 9.22266 9.78983 9.43547 10.0025C9.64801 10.2153 9.99425 10.2153 10.2068 10.0025C10.4196 9.78983 10.4196 9.44386 10.2068 9.23119C10.1005 9.12478 9.96069 9.07165 9.82113 9.07165C9.68157 9.07165 9.54174 9.12478 9.43547 9.23119Z" fill="white"/>
</svg>
