<svg width="40" height="40" viewBox="0 0 40 40" fill="none" xmlns="http://www.w3.org/2000/svg">
<path d="M27.6428 18.0547C27.4512 18.0547 27.2634 17.9763 27.1279 17.8304L24.3152 14.8069C24.1942 14.6769 24.127 14.5057 24.127 14.3281V11C24.127 10.6116 24.4417 10.2969 24.8301 10.2969H27.6426C28.0309 10.2969 28.3457 10.6116 28.3457 11V17.3516C28.3457 17.6405 28.1688 17.9001 27.8998 18.006C27.8163 18.0388 27.7292 18.0547 27.6428 18.0547Z" fill="#00215A"/>
<path d="M27.6416 31.2969H12.1729C11.7847 31.2969 11.4697 30.9821 11.4697 30.5938V16.7638C11.4697 16.575 11.5457 16.3941 11.6803 16.2619L19.5095 8.57642C19.7836 8.30725 20.2231 8.30798 20.4963 8.57788L28.1358 16.1248C28.2695 16.257 28.3447 16.4371 28.3447 16.625V30.5938C28.3447 30.9821 28.03 31.2969 27.6416 31.2969Z" fill="#F6EFEA"/>
<path d="M28.1357 16.1248L20.4962 8.57795C20.3587 8.44226 20.1793 8.3747 20 8.37525V31.2969H27.6415C28.0299 31.2969 28.3447 30.9822 28.3447 30.5938V16.6251C28.3447 16.4372 28.2694 16.257 28.1357 16.1248Z" fill="#EEE1DC"/>
<path d="M29.8438 32H10.1562C9.76788 32 9.45312 31.6852 9.45312 31.2969C9.45312 30.9085 9.76788 30.5938 10.1562 30.5938H29.8438C30.2321 30.5938 30.5469 30.9085 30.5469 31.2969C30.5469 31.6852 30.2321 32 29.8438 32Z" fill="#0040A0"/>
<path d="M29.8438 19.25C29.6638 19.25 29.4839 19.1813 29.3466 19.044L20 9.69757L10.6534 19.044C10.3789 19.3187 9.93378 19.3187 9.65912 19.044C9.38446 18.7695 9.38446 18.3244 9.65912 18.0497L19.5029 8.20599C19.6347 8.07416 19.8136 8 20 8C20.1866 8 20.3655 8.07416 20.4971 8.20599L30.3409 18.0497C30.6155 18.3244 30.6155 18.7695 30.3409 19.044C30.2037 19.1813 30.0237 19.25 29.8438 19.25Z" fill="#27D8F6"/>
<path d="M30.3409 18.0497L20.4971 8.20599C20.3655 8.07416 20.1866 8 20 8V9.69757L29.3466 19.044C29.4839 19.1813 29.6638 19.25 29.8438 19.25C30.0237 19.25 30.2037 19.1813 30.3409 19.044C30.6155 18.7695 30.6155 18.3244 30.3409 18.0497Z" fill="#00AADF"/>
<path d="M29.8438 30.5938H20V32H29.8438C30.2321 32 30.5469 31.6852 30.5469 31.2969C30.5469 30.9085 30.2321 30.5938 29.8438 30.5938Z" fill="#00215A"/>
<path d="M19.9072 29.1875C18.438 29.1875 17.1531 27.309 16.5179 26.1893C15.587 24.5482 14.9854 22.6889 14.9854 21.4531C14.9854 18.7391 17.1934 16.5312 19.9072 16.5312C22.6212 16.5312 24.8291 18.7391 24.8291 21.4531C24.8291 22.6891 24.2276 24.5482 23.2965 26.1893C22.6615 27.309 21.3765 29.1875 19.9072 29.1875Z" fill="#FF0059"/>
<path d="M20 16.5322V29.1846C21.4304 29.1081 22.6748 27.2853 23.2964 26.1892C24.2275 24.548 24.829 22.6888 24.829 21.453C24.829 18.7701 22.6713 16.582 20 16.5322Z" fill="#D20041"/>
<path d="M19.9072 22.8594C19.132 22.8594 18.501 22.2286 18.501 21.4531C18.501 20.6777 19.132 20.0469 19.9072 20.0469C20.6827 20.0469 21.3135 20.6777 21.3135 21.4531C21.3135 22.2286 20.6827 22.8594 19.9072 22.8594Z" fill="#FDF6C8"/>
<path d="M20 20.05V22.8558C20.7322 22.8078 21.3134 22.1971 21.3134 21.453C21.3134 20.7089 20.7322 20.0982 20 20.05Z" fill="#FFE898"/>
</svg>
