<svg width="40" height="40" viewBox="0 0 40 40" fill="none" xmlns="http://www.w3.org/2000/svg">
<g clip-path="url(#clip0_366_26122)">
<path d="M21.6666 20.8333C20.2882 20.8333 19.1666 19.7117 19.1666 18.3333C19.1666 16.955 20.2882 15.8333 21.6666 15.8333H23.3332V15V12.5C23.3332 11.1217 22.2116 10 20.8332 10H11.8749C11.6007 10 11.3441 10.135 11.1882 10.3608C11.0332 10.5867 10.9982 10.8742 11.0966 11.13L17.1382 26.9633C17.2607 27.2867 17.5707 27.5 17.9166 27.5H20.8332C22.2116 27.5 23.3332 26.3783 23.3332 25V21.6667V20.8333H21.6666Z" fill="#FF0000"/>
<path d="M25.5143 22.4367C25.2035 22.3075 25.0002 22.0033 25.0002 21.6667V19.1667H21.6668C21.2068 19.1667 20.8335 18.7933 20.8335 18.3333C20.8335 17.8733 21.2068 17.5 21.6668 17.5H25.0002V15C25.0002 14.6633 25.2035 14.3592 25.5143 14.23C25.826 14.1008 26.1843 14.1725 26.4227 14.4108L29.756 17.7442C30.0818 18.07 30.0818 18.5967 29.756 18.9225L26.4227 22.2558C26.1843 22.4942 25.826 22.5658 25.5143 22.4367Z" fill="#393939"/>
<path d="M17.205 11.7517L12.1975 10.0825C11.0675 9.73503 10 10.5692 10 11.6667V26.6667C10 27.3792 10.4533 28.015 11.1283 28.2484L16.135 29.9175C16.3192 29.9742 16.4883 30 16.6667 30C17.5858 30 18.3333 29.2525 18.3333 28.3334V13.3334C18.3333 12.6209 17.88 11.985 17.205 11.7517Z" fill="#A71212"/>
</g>
<defs>
<clipPath id="clip0_366_26122">
<rect width="20" height="20" fill="white" transform="translate(10 10)"/>
</clipPath>
</defs>
</svg>
