<svg width="15" height="15" viewBox="0 0 15 15" fill="none" xmlns="http://www.w3.org/2000/svg">
<path d="M7.08771 2.46608e-05C7.02372 0.000684308 6.96039 0.0132185 6.90102 0.0376276L0.314675 2.73972C0.124026 2.81756 0 3.00293 0 3.20875V11.315C0 11.5202 0.124022 11.7056 0.314675 11.7834L6.90102 14.4855C7.02372 14.5363 7.16226 14.5363 7.28495 14.4855L13.8713 11.7834C14.0619 11.7055 14.186 11.5202 14.186 11.315V3.20875C14.186 3.00292 14.0619 2.81821 13.8713 2.73972L7.28495 0.0376276C7.22228 0.0119004 7.15567 -0.000633973 7.08771 2.46608e-05ZM7.09299 1.05421L12.3442 3.20879L10.4265 3.99581L5.17468 1.84123L7.09299 1.05421ZM3.6963 2.44813L9.11702 4.5328L7.09316 5.36335L1.84199 3.20877L3.6963 2.44813ZM1.01329 3.96411L6.58635 6.25058V13.2618L1.01329 10.9754V3.96411ZM13.1727 3.96411V10.9754L10.9772 11.8765V9.62632L9.6262 10.133V12.4301L7.59963 13.2613V6.25004L9.6262 5.41883V7.59975L10.9772 7.09311V4.86473L13.1727 3.96411Z" fill="#979797"/>
</svg>
