<svg width="9" height="10" viewBox="0 0 9 10" fill="none" xmlns="http://www.w3.org/2000/svg">
<g clip-path="url(#clip0_9_5645)">
<path d="M5.60089 8.85887C5.44029 9.2129 5.33413 9.5971 5.29346 10L8.69213 9.28175C8.85274 8.9278 8.95882 8.54353 8.99957 8.14062L5.60089 8.85887Z" fill="#AECF5C"/>
<path d="M8.69232 7.12995C8.85292 6.776 8.95908 6.39173 8.99976 5.98882L6.35229 6.5486V5.4725L8.69224 4.97815C8.85284 4.6242 8.959 4.23993 8.99968 3.83702L6.35221 4.39633V0.526349C5.94654 0.752792 5.58627 1.05421 5.2934 1.40975V4.62014L4.23459 4.84388V0C3.82892 0.226363 3.46865 0.527862 3.17578 0.883404V5.06753L0.806693 5.56802C0.64609 5.92197 0.539849 6.30624 0.499098 6.70914L3.17578 6.14363V7.49879L0.307191 8.10481C0.146588 8.45876 0.0404269 8.84303 -0.000244141 9.24593L3.00237 8.61158C3.2468 8.56104 3.45688 8.41737 3.59346 8.21966L4.14412 7.40805V7.40789C4.20129 7.32392 4.23459 7.22268 4.23459 7.11364V5.9199L5.2934 5.69616V7.84836L8.69224 7.12979L8.69232 7.12995Z" fill="#AECF5C"/>
</g>
<defs>
<clipPath id="clip0_9_5645">
<rect width="9" height="10" fill="white"/>
</clipPath>
</defs>
</svg>
