<svg width="40" height="40" viewBox="0 0 40 40" fill="none" xmlns="http://www.w3.org/2000/svg">
<g clip-path="url(#clip0_366_26099)">
<path d="M22.1094 32H17.8906V28.8859C16.943 28.6606 16.0325 28.2837 15.2072 27.7755L13.0388 29.9433L10.056 26.9605L12.2244 24.7927C11.7095 23.9626 11.3373 23.0638 11.1134 22.1094H8V17.8906H11.1134C11.3373 16.9362 11.7095 16.0374 12.2244 15.2072L10.056 13.0395L13.0388 10.0567L15.2072 12.2244C16.0325 11.7163 16.943 11.3393 17.8906 11.1141V8H22.1094V11.1141C23.057 11.3394 23.9675 11.7163 24.7928 12.2245L26.9612 10.0567L29.944 13.0395L27.7756 15.2073C28.2905 16.0374 28.6627 16.9363 28.8866 17.8907H32V22.1094H28.8866C28.6627 23.0638 28.2905 23.9627 27.7756 24.7928L29.944 26.9606L26.9612 29.9434L24.7928 27.7756C23.9675 28.2838 23.057 28.6607 22.1094 28.886V32Z" fill="#0C75DD"/>
<path d="M27.7756 15.2072L29.944 13.0395L26.9612 10.0567L24.7928 12.2244C23.9675 11.7163 23.057 11.3393 22.1094 11.1141V8H20V32H22.1094V28.8859C23.057 28.6606 23.9675 28.2837 24.7928 27.7755L26.9612 29.9433L29.944 26.9605L27.7756 24.7927C28.2905 23.9626 28.6627 23.0637 28.8866 22.1093H32V17.8906H28.8866C28.6627 16.9362 28.2905 16.0374 27.7756 15.2072Z" fill="#0C75DD"/>
<path d="M26.3281 20C26.3281 22.0953 25.3016 23.9516 23.7266 25.0906L20 24.2188L16.2594 25.0906C14.6843 23.9375 13.6719 22.0812 13.6719 20C13.6719 16.5125 16.5125 13.6719 20 13.6719C23.4875 13.6719 26.3281 16.5125 26.3281 20Z" fill="#FEC007"/>
<path d="M23.7266 25.0906C25.3016 23.9516 26.3281 22.0953 26.3281 20C26.3281 16.5125 23.4875 13.6719 20 13.6719V24.2188L23.7266 25.0906Z" fill="#FE8F07"/>
<path d="M20.0003 22.8125C18.3691 22.8125 16.9488 23.7406 16.2598 25.0906C17.3004 25.8781 18.5941 26.3281 20.0003 26.3281C21.3925 26.3281 22.6862 25.8781 23.727 25.0906C23.0378 23.7265 21.6176 22.8125 20.0003 22.8125Z" fill="#FFF1C9"/>
<path d="M23.7266 25.0906C23.0375 23.7265 21.6172 22.8125 20 22.8125V26.3281C21.3922 26.3281 22.6859 25.8781 23.7266 25.0906Z" fill="#FAD4A6"/>
<path d="M20 22.8125C18.4496 22.8125 17.1875 21.5511 17.1875 20C17.1875 18.4489 18.4496 17.1875 20 17.1875C21.5504 17.1875 22.8125 18.4489 22.8125 20C22.8125 21.5511 21.5504 22.8125 20 22.8125Z" fill="#FFF1C9"/>
<path d="M22.8125 20C22.8125 18.4489 21.5504 17.1875 20 17.1875V22.8125C21.5504 22.8125 22.8125 21.5511 22.8125 20Z" fill="#FAD4A6"/>
</g>
<defs>
<clipPath id="clip0_366_26099">
<rect width="24" height="24" fill="white" transform="translate(8 8)"/>
</clipPath>
</defs>
</svg>
