<svg width="27" height="25" viewBox="0 0 27 25" fill="none" xmlns="http://www.w3.org/2000/svg">
<path fill-rule="evenodd" clip-rule="evenodd" d="M13.5208 22.5148C10.0369 22.5148 7.229 19.7069 7.229 16.2229V10.347C7.229 10.191 7.333 10.035 7.48899 10.035C10.2449 9.67098 10.7649 6.75902 10.7649 6.75902C10.8169 6.60302 10.9209 6.49902 11.0769 6.49902C11.2329 6.49902 11.3889 6.60302 11.3889 6.75902C11.7528 8.631 13.2088 9.77498 15.7047 10.087C17.6286 10.347 19.4486 10.035 19.5006 10.035C19.6046 10.035 19.6566 10.035 19.7606 10.139C19.8126 10.191 19.8646 10.243 19.8646 10.347V16.2229C19.8646 19.7069 17.0047 22.5148 13.5208 22.5148ZM7.85298 10.607V16.2229C7.85298 19.3429 10.4009 21.8908 13.5728 21.8908C16.6927 21.8908 19.2406 19.3429 19.2406 16.2229V10.711C18.5646 10.815 17.1607 10.919 15.6527 10.711C13.3128 10.399 11.7528 9.41099 11.0769 7.85101C10.9729 8.059 10.8689 8.319 10.7129 8.579C10.0369 9.67098 9.04894 10.347 7.85298 10.607Z" fill="#A0A0A7"/>
<path fill-rule="evenodd" clip-rule="evenodd" d="M7.53933 13.5702C7.48733 13.5702 7.38334 13.5702 7.33134 13.5182C7.27934 13.4662 6.34337 12.6862 5.71939 11.3342C5.14741 10.1382 4.83543 8.16227 6.39537 6.03029C6.44737 5.92629 7.79932 4.10632 10.2952 4.21032C10.5552 3.95032 11.1792 3.32633 12.1672 2.85833C13.3631 2.39034 15.2351 2.02635 17.627 3.37833C19.1349 4.15832 20.2269 5.5103 20.7469 7.07028C21.3708 9.04625 21.0588 11.1262 19.8109 13.3622C19.7069 13.4662 19.5509 13.5182 19.3949 13.4662C19.2389 13.3622 19.1869 13.2062 19.2909 13.0502C20.4349 10.9702 20.6949 9.04625 20.1229 7.22628C19.7069 5.8223 18.7189 4.62631 17.367 3.89832C15.599 2.96233 13.9351 2.80634 12.4272 3.43033C11.2832 3.95032 10.7112 4.67831 10.7112 4.67831C10.6072 4.78231 10.5032 4.83431 10.3992 4.83431C8.11131 4.67831 6.86335 6.34229 6.86335 6.39429C5.77139 7.90227 5.5634 9.51425 6.29137 11.0742C6.86335 12.2702 7.69532 12.9982 7.74732 12.9982C7.85132 13.1022 7.85132 13.3102 7.74732 13.4662C7.69532 13.5182 7.64333 13.5702 7.53933 13.5702Z" fill="#A0A0A7"/>
<path fill-rule="evenodd" clip-rule="evenodd" d="M12.7937 19.137C12.7417 19.137 12.6377 19.085 12.5857 19.033L9.88183 16.3291C9.82983 16.2251 9.77783 16.1731 9.77783 16.0691C9.77783 16.0171 9.77783 15.9131 9.88183 15.8611L10.8698 14.8731C10.9218 14.8211 11.0258 14.7691 11.0778 14.7691C11.1818 14.7691 11.2338 14.8211 11.2858 14.8731L12.7937 16.3811L15.7576 13.3651C15.9136 13.2611 16.0696 13.2611 16.2256 13.3651L17.2136 14.4051C17.2656 14.4571 17.3176 14.5091 17.3176 14.6131C17.3176 14.7171 17.2656 14.7691 17.2136 14.8211L13.0017 19.033C12.9497 19.085 12.8977 19.137 12.7937 19.137ZM10.5058 16.0691L12.7937 18.357L16.5896 14.6131L16.0176 14.0411L13.0537 17.0051C12.9497 17.0571 12.8977 17.1091 12.7937 17.1091C12.7417 17.1091 12.6377 17.1091 12.5857 17.0051L11.0778 15.5491L10.5058 16.0691Z" fill="#A0A0A7"/>
<path fill-rule="evenodd" clip-rule="evenodd" d="M7.54162 16.1702H6.91764C6.24166 16.1702 5.72168 15.6503 5.72168 14.9743V14.1423C5.72168 13.4663 6.24166 12.9463 6.91764 12.9463H7.54162C7.69761 12.9463 7.8536 13.1023 7.8536 13.2583V15.8582C7.8536 16.0142 7.69761 16.1702 7.54162 16.1702ZM6.91764 13.5703C6.60565 13.5703 6.34566 13.8303 6.34566 14.1423V14.9743C6.34566 15.2863 6.60565 15.5463 6.91764 15.5463H7.22963V13.5703H6.91764Z" fill="#A0A0A7"/>
<path fill-rule="evenodd" clip-rule="evenodd" d="M20.1733 16.1204H19.5493C19.3933 16.1204 19.2373 15.9644 19.2373 15.8084V13.2085C19.2373 13.0005 19.3933 12.8965 19.5493 12.8965H20.1733C20.8492 12.8965 21.3692 13.4165 21.3692 14.0925V14.9245C21.3692 15.6004 20.8492 16.1204 20.1733 16.1204ZM19.8613 15.4964H20.1733C20.4853 15.4964 20.7453 15.2365 20.7453 14.9245V14.0925C20.7453 13.7805 20.4853 13.5205 20.1733 13.5205H19.8613V15.4964Z" fill="#A0A0A7"/>
<path fill-rule="evenodd" clip-rule="evenodd" d="M26.3112 24.9591H18.2514C18.0954 24.9591 17.9395 24.8551 17.9395 24.6471V22.3591C17.9395 22.2031 18.0954 22.0471 18.2514 22.0471H23.5033V17.2632C23.5033 17.1072 23.6593 16.9512 23.8152 16.9512H26.3112C26.4672 16.9512 26.6231 17.1072 26.6231 17.2632V24.6471C26.6231 24.8551 26.4672 24.9591 26.3112 24.9591ZM18.5634 24.3351H25.9992V17.5752H24.1272V22.3591C24.1272 22.5671 23.9712 22.6711 23.8152 22.6711H18.5634V24.3351Z" fill="#A0A0A7"/>
<path fill-rule="evenodd" clip-rule="evenodd" d="M8.3717 24.9591H0.311989C0.155994 24.9591 0 24.8551 0 24.6471V17.2632C0 17.1072 0.155994 16.9512 0.311989 16.9512H2.8079C2.96389 16.9512 3.11989 17.1072 3.11989 17.2632V22.0471H8.3717C8.5277 22.0471 8.68369 22.2031 8.68369 22.3591V24.6471C8.68369 24.8551 8.5277 24.9591 8.3717 24.9591ZM0.623978 24.3351H8.05971V22.6711H2.8079C2.65191 22.6711 2.49591 22.5671 2.49591 22.3591V17.5752H0.623978V24.3351Z" fill="#A0A0A7"/>
<path fill-rule="evenodd" clip-rule="evenodd" d="M2.8079 8.0079H0.311989C0.155994 8.0079 0 7.8519 0 7.6959V0.311996C0 0.103999 0.155994 0 0.311989 0H8.3717C8.5277 0 8.68369 0.103999 8.68369 0.311996V2.59997C8.68369 2.75596 8.5277 2.91196 8.3717 2.91196H3.11989V7.6959C3.11989 7.8519 2.96389 8.0079 2.8079 8.0079ZM0.623978 7.3839H2.49591V2.59997C2.49591 2.39197 2.65191 2.28797 2.8079 2.28797H8.05971V0.623992H0.623978V7.3839Z" fill="#A0A0A7"/>
<path fill-rule="evenodd" clip-rule="evenodd" d="M26.3112 8.0079H23.8152C23.6593 8.0079 23.5033 7.8519 23.5033 7.6959V2.91196H18.2514C18.0954 2.91196 17.9395 2.75596 17.9395 2.59997V0.311996C17.9395 0.103999 18.0954 0 18.2514 0H26.3112C26.4672 0 26.6231 0.103999 26.6231 0.311996V7.6959C26.6231 7.8519 26.4672 8.0079 26.3112 8.0079ZM24.1272 7.3839H25.9992V0.623992H18.5634V2.28797H23.8152C23.9712 2.28797 24.1272 2.39197 24.1272 2.59997V7.3839Z" fill="#A0A0A7"/>
</svg>
