<svg width="20" height="20" viewBox="0 0 20 20" fill="none" xmlns="http://www.w3.org/2000/svg">
<path d="M14.1667 17.7084H5.83341C5.49175 17.7084 5.20841 17.4251 5.20841 17.0834C5.20841 16.7417 5.49175 16.4584 5.83341 16.4584H14.1667C16.5501 16.4584 17.7084 15.3001 17.7084 12.9167V7.08342C17.7084 4.70008 16.5501 3.54175 14.1667 3.54175H5.83341C3.45008 3.54175 2.29175 4.70008 2.29175 7.08342C2.29175 7.42508 2.00841 7.70842 1.66675 7.70842C1.32508 7.70842 1.04175 7.42508 1.04175 7.08342C1.04175 4.04175 2.79175 2.29175 5.83341 2.29175H14.1667C17.2084 2.29175 18.9584 4.04175 18.9584 7.08342V12.9167C18.9584 15.9584 17.2084 17.7084 14.1667 17.7084Z" fill="#A0A0A7"/>
<path d="M9.99973 10.725C9.29973 10.725 8.5914 10.5083 8.04974 10.0666L5.4414 7.98331C5.17473 7.76664 5.12474 7.37497 5.3414 7.10831C5.55807 6.84164 5.94973 6.79164 6.21639 7.00831L8.82473 9.09164C9.45806 9.59998 10.5331 9.59998 11.1664 9.09164L13.7747 7.00831C14.0414 6.79164 14.4414 6.83331 14.6497 7.10831C14.8664 7.37497 14.8247 7.77498 14.5497 7.98331L11.9414 10.0666C11.4081 10.5083 10.6997 10.725 9.99973 10.725Z" fill="#A0A0A7"/>
<path d="M6.66675 14.375H1.66675C1.32508 14.375 1.04175 14.0917 1.04175 13.75C1.04175 13.4083 1.32508 13.125 1.66675 13.125H6.66675C7.00841 13.125 7.29175 13.4083 7.29175 13.75C7.29175 14.0917 7.00841 14.375 6.66675 14.375Z" fill="#A0A0A7"/>
<path d="M4.16675 11.0417H1.66675C1.32508 11.0417 1.04175 10.7584 1.04175 10.4167C1.04175 10.0751 1.32508 9.79175 1.66675 9.79175H4.16675C4.50841 9.79175 4.79175 10.0751 4.79175 10.4167C4.79175 10.7584 4.50841 11.0417 4.16675 11.0417Z" fill="#A0A0A7"/>
</svg>
