<svg width="140" height="127" viewBox="0 0 140 127" fill="none" xmlns="http://www.w3.org/2000/svg">
<circle cx="68.5576" cy="69.2148" r="57.7065" fill="#4CD964" fill-opacity="0.13"/>
<path d="M126.804 18.0316C126.613 17.761 126.367 17.5318 126.079 17.3584C125.792 17.185 125.471 17.0713 125.136 17.0244C124.801 16.9775 124.459 16.9984 124.133 17.0859C123.807 17.1735 123.503 17.3256 123.241 17.5327C96.4345 38.8512 71.6673 64.4524 63.2883 80.2323L41.588 56.47C40.7239 55.5237 39.507 54.9471 38.204 54.8663C36.9009 54.7855 35.6179 55.2071 34.6357 56.0389L29.6834 60.2331C28.7163 61.0521 28.118 62.2036 28.0157 63.4426C27.9134 64.6816 28.3152 65.9103 29.1356 66.8673L56.9799 99.3454C57.4237 99.8631 57.9801 100.28 58.6095 100.566C59.2389 100.852 59.9258 101 60.6213 101H67.3673C68.235 100.997 69.0852 100.764 69.8256 100.327C70.5661 99.8893 71.1685 99.2643 71.5675 98.5194C89.2949 65.6116 105.265 46.985 129.233 25.0047C129.655 24.6198 129.921 24.1027 129.985 23.5454C130.049 22.9882 129.906 22.4271 129.582 21.9623L126.804 18.0316Z" fill="#4CD964"/>
<circle cx="14.468" cy="30.251" r="3.61693" fill="#4CD964"/>
<circle cx="109.659" cy="6.74065" r="6.74065" fill="#4CD964"/>
<circle cx="15.6184" cy="106.371" r="6.41183" fill="#4CD964"/>
<circle cx="130.374" cy="100.124" r="6.41183" fill="#4CD964"/>
<circle cx="117.879" cy="107.357" r="3.12371" fill="#4CD964"/>
<path d="M133.385 80.3389L134.392 85.0959L139.081 86.1174L134.392 87.1389L133.385 91.896L132.378 87.1389L127.689 86.1174L132.378 85.0959L133.385 80.3389Z" fill="#4CD964"/>
<path d="M127.15 32.7765C127.272 32.1988 128.097 32.1988 128.219 32.7765L128.619 34.6625C128.663 34.8728 128.827 35.0375 129.037 35.0832L130.93 35.4956C131.503 35.6206 131.503 36.4385 130.93 36.5634L129.037 36.9759C128.827 37.0216 128.663 37.1863 128.619 37.3966L128.219 39.2825C128.097 39.8602 127.272 39.8602 127.15 39.2825L126.751 37.3966C126.706 37.1863 126.543 37.0216 126.333 36.9759L124.44 36.5634C123.866 36.4385 123.866 35.6206 124.44 35.4956L126.333 35.0832C126.543 35.0375 126.706 34.8728 126.751 34.6625L127.15 32.7765Z" fill="#4CD964"/>
<path d="M7.75188 72.5622C7.87416 71.9845 8.69877 71.9845 8.82105 72.5622L9.67817 76.6115C9.72269 76.8218 9.88639 76.9865 10.0964 77.0323L14.1221 77.9093C14.6956 78.0342 14.6956 78.8522 14.1221 78.9771L10.0964 79.8541C9.88639 79.8998 9.72269 80.0645 9.67817 80.2748L8.82105 84.3242C8.69877 84.9019 7.87416 84.9019 7.75188 84.3242L6.89476 80.2748C6.85024 80.0645 6.68654 79.8998 6.47648 79.8541L2.4508 78.9771C1.87731 78.8522 1.87731 78.0342 2.4508 77.9093L6.47649 77.0323C6.68654 76.9865 6.85024 76.8219 6.89476 76.6115L7.75188 72.5622Z" fill="#4CD964"/>
<path d="M28.9995 16.4054C28.6827 16.338 28.6827 15.8859 28.9995 15.8185L31.2567 15.3385C31.3721 15.314 31.4625 15.224 31.4875 15.1087L31.9749 12.8607C32.0433 12.5454 32.493 12.5454 32.5613 12.8607L33.0488 15.1087C33.0738 15.224 33.1641 15.314 33.2796 15.3385L35.5367 15.8185C35.8535 15.8859 35.8535 16.338 35.5367 16.4054L33.2796 16.8854C33.1641 16.9099 33.0738 16.9999 33.0488 17.1153L32.5613 19.3633C32.493 19.6785 32.0433 19.6785 31.9749 19.3633L31.4875 17.1153C31.4625 16.9999 31.3721 16.9099 31.2567 16.8854L28.9995 16.4054Z" fill="#4CD964"/>
</svg>
