<svg width="40" height="40" viewBox="0 0 40 40" fill="none" xmlns="http://www.w3.org/2000/svg">
<g clip-path="url(#clip0_366_26018)">
<path d="M26.5143 24.92L22.381 24.3748C21.8735 24.3079 21.4934 23.8625 21.4934 23.335V21.4016H18.5075V23.335C18.5075 23.8625 18.1273 24.3079 17.6199 24.3748L13.4866 24.92C12.2213 25.0869 11.2734 26.1974 11.2734 27.5128V29.4887C13.547 31.7132 16.6191 33.0782 20.0004 33.0782C23.3818 33.0782 26.4539 31.7132 28.7274 29.4887V27.5128C28.7274 26.1974 27.7796 25.0869 26.5143 24.92Z" fill="#FFC776"/>
<path d="M26.5138 24.92L22.3804 24.3748C21.873 24.3079 21.4929 23.8625 21.4929 23.335V21.4016H19.9976V33.0782C19.9984 33.0782 19.9991 33.0783 19.9999 33.0783C23.3813 33.0783 26.4534 31.7133 28.7269 29.4888V27.5129C28.7269 26.1974 27.7791 25.0869 26.5138 24.92Z" fill="#FFBB61"/>
<path d="M22.4352 22.2037L21.7336 22.5933C20.6555 23.1919 19.3579 23.1919 18.2798 22.5933L17.5782 22.2037C16.2826 21.4842 15.4746 20.0893 15.4746 18.5717V14.1089H24.5388V18.5717C24.5388 20.0893 23.7309 21.4842 22.4352 22.2037Z" fill="#FED080"/>
<path d="M24.5389 14.1089H19.9976V23.0421C20.5945 23.0437 21.1919 22.8942 21.7337 22.5933L22.4353 22.2037C23.731 21.4842 24.5389 20.0893 24.5389 18.5717L24.5389 14.1089Z" fill="#FFC776"/>
<path d="M26.5142 24.92L23.016 24.4585C22.2618 25.2882 21.1902 25.8073 20.0004 25.8073C18.8106 25.8073 17.7389 25.2882 16.9848 24.4585L13.4866 24.92C12.2213 25.0869 11.2734 26.1974 11.2734 27.5127V29.4887C13.5469 31.7132 16.619 33.0781 20.0004 33.0781C23.3818 33.0781 26.4538 31.7132 28.7274 29.4887V27.5127C28.7274 26.1974 27.7795 25.0869 26.5142 24.92Z" fill="#283592"/>
<path d="M20 33.0781C23.3814 33.0781 26.4534 31.7132 28.727 29.4887V27.5127C28.727 26.1973 27.7791 25.0869 26.5138 24.92L23.0156 24.4585C22.2614 25.2882 21.1898 25.8073 20 25.8073V33.0781Z" fill="#1A237E"/>
<path d="M19.7847 25.8012C18.6812 25.7428 17.6927 25.2376 16.9842 24.4583L15.4746 24.6574L17.865 27.8386L19.9999 25.8081C19.9276 25.8081 19.8559 25.8057 19.7847 25.8012Z" fill="#303F9E"/>
<path d="M20 25.8083L22.1349 27.8388L24.5253 24.6576L23.0156 24.4585C22.3072 25.2378 21.3186 25.743 20.2152 25.8015C20.1441 25.8059 20.0723 25.8083 20 25.8083Z" fill="#283592"/>
<path d="M25.1642 15.4918C25.1642 12.5504 22.852 10.166 19.9998 10.166C17.1476 10.166 14.8354 12.5504 14.8354 15.4918C14.8354 15.5359 14.8354 19.4198 14.8354 19.4198H15.7598V16.8105C16.8358 15.5355 18.3245 14.7127 19.9998 14.7127C21.6751 14.7127 23.1639 15.5355 24.2398 16.8105V19.4198H25.1642C25.1642 19.4198 25.1642 15.5359 25.1642 15.4918Z" fill="#FEC007"/>
<path d="M25.4783 18.4644H24.4158V15.2866C24.4158 12.7757 22.4349 10.733 20.0002 10.733C17.5654 10.733 15.5846 12.7757 15.5846 15.2866V18.4644H14.522V15.2866C14.522 12.1715 16.9795 9.63721 20.0002 9.63721C23.0209 9.63721 25.4783 12.1715 25.4783 15.2866V18.4644Z" fill="#37474F"/>
<path d="M19.9999 9.63721C19.9991 9.63721 19.9984 9.63726 19.9976 9.63726V10.733C19.9984 10.733 19.9991 10.733 19.9999 10.733C22.4347 10.733 24.4155 12.7757 24.4155 15.2866V18.4644H25.4781V15.2866C25.4781 12.1715 23.0206 9.63721 19.9999 9.63721Z" fill="#263238"/>
<path d="M22.3969 21.8901H19.3745V20.7943H22.3969C23.4841 20.7943 24.3686 19.8822 24.3686 18.761H25.4312C25.4312 20.4864 24.0699 21.8901 22.3969 21.8901Z" fill="#263238"/>
<path d="M15.6217 19.8037H14.4599C13.6018 19.8037 12.9062 19.0864 12.9062 18.2015V16.339C12.9062 15.4541 13.6018 14.7368 14.4599 14.7368H15.6217L15.6217 19.8037Z" fill="#3F51B4"/>
<path d="M25.5403 19.8036H24.3784V14.7368H25.5403C26.3983 14.7368 27.0939 15.4541 27.0939 16.339V18.2015C27.0939 19.0863 26.3983 19.8036 25.5403 19.8036Z" fill="#303F9E"/>
<path d="M19.7173 22.511H18.4658C17.8464 22.511 17.3442 21.9932 17.3442 21.3544C17.3442 20.7156 17.8464 20.1978 18.4658 20.1978H19.7173C20.3367 20.1978 20.8389 20.7156 20.8389 21.3544C20.8389 21.9932 20.3368 22.511 19.7173 22.511Z" fill="#DC2C00"/>
<path d="M19.9976 20.2344V22.4745C20.481 22.3458 20.8382 21.8931 20.8382 21.3544C20.8382 20.8157 20.4811 20.363 19.9976 20.2344Z" fill="#B21F02"/>
</g>
<defs>
<clipPath id="clip0_366_26018">
<rect width="18" height="27" fill="white" transform="translate(11 6.5)"/>
</clipPath>
</defs>
</svg>
