<svg width="40" height="40" viewBox="0 0 40 40" fill="none" xmlns="http://www.w3.org/2000/svg">
<g clip-path="url(#clip0_366_26066)">
<path d="M30.6562 20V23.0938C30.6557 23.2759 30.5831 23.4505 30.4543 23.5793C30.3255 23.7081 30.1509 23.7807 29.9688 23.7812H25.1562C24.9741 23.7807 24.7995 23.7081 24.6707 23.5793C24.5419 23.4505 24.4693 23.2759 24.4688 23.0938V21.0312C24.4693 20.8491 24.5419 20.6745 24.6707 20.5457C24.7995 20.4169 24.9741 20.3443 25.1562 20.3438H29.2812V19.3125H29.9688C30.1509 19.313 30.3255 19.3857 30.4543 19.5145C30.5831 19.6433 30.6557 19.8178 30.6562 20ZM26.875 22.0625C26.875 21.9265 26.8347 21.7936 26.7591 21.6805C26.6836 21.5675 26.5762 21.4794 26.4506 21.4273C26.325 21.3753 26.1867 21.3617 26.0534 21.3882C25.92 21.4147 25.7975 21.4802 25.7014 21.5764C25.6052 21.6725 25.5397 21.795 25.5132 21.9284C25.4867 22.0617 25.5003 22.2 25.5523 22.3256C25.6044 22.4512 25.6925 22.5586 25.8055 22.6341C25.9186 22.7097 26.0515 22.75 26.1875 22.75C26.3697 22.7495 26.5442 22.6768 26.673 22.548C26.8018 22.4192 26.8745 22.2447 26.875 22.0625Z" fill="#E03E3E"/>
<path d="M27.7825 9.34375L30.6562 17.5181L29.2812 18.0097V15.875C29.2807 15.6928 29.2081 15.5183 29.0793 15.3895C28.9505 15.2607 28.7759 15.188 28.5938 15.1875H28.0266L27.0572 12.4306C26.8927 12.4892 26.7182 12.5147 26.5438 12.5056C26.3694 12.4965 26.1985 12.453 26.041 12.3776C25.8835 12.3022 25.7425 12.1964 25.626 12.0663C25.5096 11.9362 25.42 11.7843 25.3625 11.6194L15.3525 15.1737V15.1875H12.4375C12.3523 15.1876 12.2672 15.1807 12.1831 15.1669L12.0938 14.9194L23.795 10.76L27.7825 9.34375Z" fill="#36CE94"/>
<path d="M10.7531 13.8022C10.8215 14.1494 10.9956 14.467 11.2516 14.7114C11.5077 14.9557 11.8331 15.1148 12.1831 15.1669C12.2672 15.1807 12.3523 15.1876 12.4375 15.1875H28.5938C28.7759 15.188 28.9505 15.2606 29.0793 15.3894C29.2081 15.5183 29.2807 15.6928 29.2812 15.875V20.3437H25.1562C24.9741 20.3443 24.7995 20.4169 24.6707 20.5457C24.5419 20.6745 24.4693 20.8491 24.4688 21.0312V23.0937C24.4693 23.2759 24.5419 23.4505 24.6707 23.5793C24.7995 23.7081 24.9741 23.7807 25.1562 23.7812H29.2812V27.5625C29.2812 27.9784 28.6659 28.5937 27.9062 28.5937H23.0938V23.0937C23.0932 22.9116 23.0206 22.737 22.8918 22.6082C22.763 22.4794 22.5884 22.4068 22.4062 22.4062H11.4062C11.2241 22.4068 11.0495 22.4794 10.9207 22.6082C10.7919 22.737 10.7193 22.9116 10.7188 23.0937V28.5937C10.3541 28.5937 10.0043 28.4489 9.74648 28.191C9.48862 27.9331 9.34375 27.5834 9.34375 27.2187V13.8125C9.34375 13.2655 9.56105 12.7409 9.94784 12.3541C10.3346 11.9673 10.8592 11.75 11.4062 11.75H12.5097C12.0735 11.743 11.6501 11.8974 11.3208 12.1835C10.9915 12.4697 10.7796 12.8674 10.7256 13.3003C10.7086 13.468 10.7179 13.6373 10.7531 13.8022Z" fill="#FEBD55"/>
<path d="M27.0572 12.4306L28.0266 15.1875H15.3525V15.1738L25.3625 11.6194C25.42 11.7843 25.5096 11.9362 25.6261 12.0663C25.7425 12.1964 25.8836 12.3023 26.0411 12.3777C26.1986 12.4531 26.3695 12.4966 26.5439 12.5056C26.7183 12.5147 26.8927 12.4892 27.0572 12.4306Z" fill="#2FB380"/>
<path d="M26.1875 22.75C26.5672 22.75 26.875 22.4422 26.875 22.0625C26.875 21.6828 26.5672 21.375 26.1875 21.375C25.8078 21.375 25.5 21.6828 25.5 22.0625C25.5 22.4422 25.8078 22.75 26.1875 22.75Z" fill="#2B2B37"/>
<path d="M16.4317 11.75L23.0936 9.34375L23.7811 10.7187L23.7948 10.76L12.0936 14.9194L12.1829 15.1669C11.8329 15.1148 11.5075 14.9557 11.2514 14.7114C10.9954 14.467 10.8213 14.1494 10.7529 13.8022L16.4317 11.75Z" fill="#2FB380"/>
<path d="M16.4323 11.75L10.7535 13.8022C10.7183 13.6373 10.709 13.468 10.726 13.3003C10.78 12.8674 10.9919 12.4697 11.3212 12.1835C11.6505 11.8974 12.0739 11.743 12.5101 11.75H16.4323Z" fill="#BD6F08"/>
<path d="M23.0938 28.5938V29.9688C23.0932 30.1509 23.0206 30.3255 22.8918 30.4543C22.763 30.5831 22.5884 30.6557 22.4062 30.6562H11.4062C11.2241 30.6557 11.0495 30.5831 10.9207 30.4543C10.7919 30.3255 10.7193 30.1509 10.7188 29.9688V25.5H23.0938V28.5938Z" fill="#FF6161"/>
<path d="M23.0938 24.4688V25.5H22.75H11.0625H10.7188V24.4688H11.0625H22.75H23.0938Z" fill="#EDF4FA"/>
<path d="M23.0938 23.0938V24.4688H10.7188V23.0938C10.7193 22.9116 10.7919 22.737 10.9207 22.6082C11.0495 22.4794 11.2241 22.4068 11.4062 22.4062H22.4062C22.5884 22.4068 22.763 22.4794 22.8918 22.6082C23.0206 22.737 23.0932 22.9116 23.0938 23.0938Z" fill="#CB3541"/>
<path d="M22.4062 29.625H18.625C17.3463 29.6242 16.0993 29.2272 15.0557 28.4884C14.012 27.7497 13.2229 26.7057 12.7971 25.5H10.7188V29.9688C10.7193 30.1509 10.7919 30.3255 10.9207 30.4543C11.0495 30.5831 11.2241 30.6557 11.4062 30.6562H22.4062C22.5884 30.6557 22.763 30.5831 22.8918 30.4543C23.0206 30.3255 23.0932 30.1509 23.0938 29.9688V28.9375C23.0938 29.1198 23.0213 29.2947 22.8924 29.4236C22.7635 29.5526 22.5886 29.625 22.4062 29.625Z" fill="#E03E3E"/>
<path d="M12.7971 25.5C12.6785 25.1646 12.5892 24.8196 12.5303 24.4688H10.7188V25.5H12.7971Z" fill="#C1CFE8"/>
<path d="M12.5303 24.4688C12.4708 24.1282 12.4397 23.7832 12.4375 23.4375V22.4062H11.4062C11.2241 22.4068 11.0495 22.4794 10.9207 22.6082C10.7919 22.737 10.7193 22.9116 10.7188 23.0938V24.4688H12.5303Z" fill="#A81E29"/>
<path d="M23.7811 10.7187L23.5019 10.1604L13.0622 13.9303C12.8946 13.9908 12.7099 13.9839 12.5473 13.9109C12.3847 13.8379 12.2567 13.7046 12.1905 13.5391L12.1008 13.315L10.7529 13.8021C10.8213 14.1493 10.9954 14.4669 11.2514 14.7113C11.5075 14.9556 11.8329 15.1147 12.1829 15.1668L12.0936 14.9193L23.7948 10.7599L23.7811 10.7187Z" fill="#2AA173"/>
<path d="M18.218 14.1562H14.2405L12.0938 14.9194L12.1831 15.1669C12.2672 15.1807 12.3523 15.1876 12.4375 15.1875H15.3525V15.1737L18.218 14.1562Z" fill="#2FB380"/>
<path d="M30.6566 17.5181L29.4748 14.1562H27.666L28.0287 15.1875H28.5941C28.7763 15.188 28.9509 15.2607 29.0797 15.3895C29.2085 15.5183 29.2811 15.6928 29.2816 15.875V18.0097L30.6566 17.5181Z" fill="#2FB380"/>
<path d="M18.218 14.1562L15.3525 15.1737V15.1875H28.0266L27.6639 14.1562H18.218Z" fill="#2AA173"/>
<path d="M30.3125 23.0938H26.875C26.7288 23.0934 26.5844 23.0618 26.4515 23.001C26.3186 22.9402 26.2002 22.8517 26.1043 22.7414C25.9377 22.7223 25.7839 22.6425 25.6723 22.5173C25.5606 22.3921 25.499 22.2302 25.499 22.0625C25.499 21.8948 25.5606 21.7329 25.6723 21.6077C25.7839 21.4825 25.9377 21.4027 26.1043 21.3836C26.2002 21.2733 26.3186 21.1848 26.4515 21.124C26.5844 21.0632 26.7288 21.0316 26.875 21.0312H29.2812C29.4636 21.0312 29.6385 20.9588 29.7674 20.8299C29.8963 20.701 29.9688 20.5261 29.9688 20.3438V19.3125H29.2812V20.3438H25.1562C24.9741 20.3443 24.7995 20.4169 24.6707 20.5457C24.5419 20.6745 24.4693 20.8491 24.4688 21.0312V23.0938C24.4693 23.2759 24.5419 23.4505 24.6707 23.5793C24.7995 23.7081 24.9741 23.7807 25.1562 23.7812H29.9688C30.1509 23.7807 30.3255 23.7081 30.4543 23.5793C30.5831 23.4505 30.6557 23.2759 30.6562 23.0938V22.75C30.6562 22.8412 30.62 22.9286 30.5556 22.9931C30.4911 23.0575 30.4037 23.0938 30.3125 23.0938Z" fill="#CB3541"/>
<path d="M25.5 24.8125H29.2812V23.7812H25.1562C25.0352 23.7805 24.9165 23.7474 24.8125 23.6853V24.125C24.8125 24.3073 24.8849 24.4822 25.0139 24.6111C25.1428 24.74 25.3177 24.8125 25.5 24.8125Z" fill="#FC9E20"/>
<path d="M10.7188 24.4687V23.0937C10.7193 22.9116 10.7919 22.737 10.9207 22.6082C11.0495 22.4794 11.2241 22.4068 11.4062 22.4062H12.0938V15.1462C11.7625 15.0796 11.4585 14.9164 11.2199 14.6773C10.9813 14.4381 10.8189 14.1336 10.7531 13.8022C10.7179 13.6373 10.7086 13.468 10.7256 13.3003C10.7796 12.8674 10.9915 12.4697 11.3208 12.1835C11.6501 11.8974 12.0735 11.743 12.5097 11.75H11.4062C10.8592 11.75 10.3346 11.9673 9.94784 12.3541C9.56105 12.7409 9.34375 13.2655 9.34375 13.8125V27.2187C9.34375 27.5834 9.48862 27.9331 9.74648 28.191C10.0043 28.4489 10.3541 28.5937 10.7188 28.5937V24.4687Z" fill="#FC9E20"/>
<path d="M28.25 27.2188H25.5C25.1353 27.2188 24.7856 27.0739 24.5277 26.816C24.2699 26.5582 24.125 26.2084 24.125 25.8438V24.125C24.125 23.9427 24.0526 23.7678 23.9236 23.6389C23.7947 23.5099 23.6198 23.4375 23.4375 23.4375H23.0938V28.5938H27.9062C28.6659 28.5938 29.2812 27.9784 29.2812 27.5625V26.1875C29.2812 26.461 29.1726 26.7233 28.9792 26.9167C28.7858 27.1101 28.5235 27.2188 28.25 27.2188Z" fill="#FC9E20"/>
</g>
<defs>
<clipPath id="clip0_366_26066">
<rect width="22" height="22" fill="white" transform="translate(9 9)"/>
</clipPath>
</defs>
</svg>
